<svg version="1.2" xmlns="http://www.w3.org/2000/svg" viewBox="0 0 282 276" width="500" height="500">
	<title>logo-svg</title>
	<style>
		.s0 { fill: none;stroke: #888888;stroke-width: 2 } 
		.s1 { fill: #ffffff } 
		.s2 { fill: #111111 } 
	</style>
	<g id="Layer">
		<path id="Layer" fill-rule="evenodd" class="s0" d="m133 41.2c0.1 1.7-0.2 2.8 0.7 4.3 3.2 5 10.4 3 10.5-2.8 0.1-4-3.3-6-7-5.7q-0.1 0-0.2 0-0.1 0-0.2 0-0.1-0.1-0.2-0.1-0.1-0.1-0.2-0.2l-6.7-6.5q-0.4-0.4-0.3-0.9c1.1-7.2-8.4-10-11-3.4-1.7 4.4 2.5 8 6.9 7.5q0.5 0 0.8 0.3l6.5 6.6q0.3 0.4 0.4 0.9z"/>
		<path id="Layer" fill-rule="evenodd" class="s0" d="m135.9 67.3q0.1-0.2 0.3-0.3 0.1-0.2 0.3-0.3 0.2-0.1 0.4-0.1 0.2 0 0.4-0.1h17.6q0.1 0 0.2 0 0.1 0 0.2-0.1 0.1 0 0.2-0.1 0.1-0.1 0.2-0.1l19-19q0.4-0.4 0-0.9-7.8-7.8-15.6-15.5c-1.6-1.6-0.4-3.3-1.3-5.1-3.6-7.3-14.2-1.9-10 5.2q1.8 3.1 6.1 2.5 0.2 0 0.3 0 0.1 0 0.2 0 0.1 0.1 0.2 0.1 0.1 0.1 0.2 0.2l12.7 12.7q0.4 0.4 0 0.8l-14 13.9q-0.1 0.1-0.2 0.1-0.1 0.1-0.2 0.2-0.2 0-0.3 0.1-0.2 0-0.3 0h-15.5q-0.5 0-0.8-0.4-3.9-4.7-8.2-1.6c-7.3 5.4 3 14.9 7.9 7.8z"/>
		<path id="Layer" fill-rule="evenodd" class="s0" d="m136.3 78.5c-10-9.9-15.7 8.9-4.5 8.6 2.6-0.1 4-3.2 5.7-3.3q6.9-0.4 22.7 0.2 0.6 0 1-0.3l29.7-29.5q0.1 0 0.2-0.1 0-0.1 0.1-0.2 0-0.1 0-0.2 0.1-0.1 0-0.2v-12.5q0.1-0.1 0.1-0.2 0-0.1 0-0.2 0.1-0.1 0.1-0.2 0.1 0 0.2-0.1l2.1-2q0.4-0.4 0.5-0.9c1.7-6.3-6.1-10.9-9.8-5.7q-3.3 4.6 1.5 8.5 0.1 0.1 0.1 0.2 0.1 0.1 0.2 0.2 0 0.1 0 0.2 0 0.1 0 0.2v10.2q0 0.1 0 0.2 0 0.1 0 0.2-0.1 0.1-0.1 0.1-0.1 0.1-0.1 0.2l-26.8 26.4q-0.1 0.1-0.2 0.2-0.1 0.1-0.3 0.1-0.1 0.1-0.2 0.1-0.2 0-0.3 0.1h-21.2q-0.4 0-0.7-0.3z"/>
		<path id="Layer" fill-rule="evenodd" class="s0" d="m186.2 203.7q-0.7-0.6-0.7-1.5l0.1-68.9q0-0.5-0.4-0.9l-30.1-30.3q-0.4-0.3-0.9-0.3h-33q-0.1 0-0.3-0.1-0.1 0-0.3-0.1-0.1 0-0.2-0.1-0.1-0.1-0.2-0.2l-15.3-14.9q-0.3-0.3-0.3-0.7l-0.3-44.6q0-0.5 0.4-0.9l1.9-1.9q0.3-0.3 0.4-0.8 1.1-4.3-1.7-6.5c-6.2-5-13.2 4.7-6.5 9.2q0.1 0.1 0.2 0.2 0.1 0 0.1 0.1 0.1 0.1 0.1 0.3 0 0.1 0.1 0.2v46.7q0 0.1 0 0.2 0 0.1 0 0.3 0.1 0.1 0.1 0.1 0.1 0.1 0.2 0.2l19 18.3q0 0.1 0.1 0.1 0.1 0 0.1 0.1 0.1 0 0.2 0 0 0 0.1 0l32.9-0.1q0.1 0 0.2 0.1 0.2 0 0.3 0 0.1 0.1 0.3 0.2 0.1 0 0.2 0.2l27.1 27q0.4 0.5 0.4 1.1v67.5q0 0.1 0 0.3-0.1 0.1-0.1 0.2-0.1 0.1-0.1 0.2-0.1 0.1-0.2 0.1c-8.4 6.3 4.1 15.6 8 7.3 1.3-2.7 0.4-5.6-1.9-7.4z"/>
		<path id="Layer" fill-rule="evenodd" class="s0" d="m205.6 136.8c-0.5-1.7-1.5-1.9-2.5-3.1q-0.3-0.4-0.3-1l0.2-44.4q0 0 0.1-0.1 0 0 0-0.1 0 0 0-0.1 0.1 0 0.1-0.1l11-10.9q0-0.1 0.1-0.2 0.1-0.1 0.1-0.2 0.1-0.1 0.1-0.2 0-0.1 0-0.3v-23.7q0-0.1 0-0.2 0.1-0.1 0.1-0.2 0.1-0.1 0.1-0.2 0.1-0.1 0.2-0.2 3.7-2.7 2.4-6.6c-3-9-17.2-0.8-8.2 6.9q0.1 0.1 0.2 0.2 0.1 0.1 0.1 0.2 0.1 0.1 0.1 0.2 0 0.2 0 0.3v20.9q0 0.6-0.5 1l-10.4 10.3q-0.2 0.2-0.4 0.4-0.1 0.3-0.2 0.5-0.1 0.3-0.2 0.5 0 0.3 0 0.6v46q0 0.7-0.5 1.1-4.2 3.4-1.6 7.7c3.3 5.7 11.7 2.1 9.9-5z"/>
		<path id="Layer" fill-rule="evenodd" class="s0" d="m95.8 100c-4.3-4.5-8.7-9.6-13.3-13.6q-0.4-0.3-0.4-0.7l-0.3-12.8q0-0.5-0.4-0.8l-9.3-9.5q-0.1 0-0.2-0.2-0.1-0.1-0.1-0.2-0.1-0.1-0.1-0.3 0-0.1 0-0.3c1.1-11.7-15.6-6.6-10.4 1.9q1.8 2.9 6.2 2.4 0.1 0 0.2 0 0.1 0 0.2 0.1 0.1 0 0.2 0.1 0.1 0 0.2 0.1l8.1 8q0.4 0.4 0.4 1v12.5q0 0.1 0 0.2 0 0.1 0 0.2 0.1 0.1 0.1 0.2 0.1 0 0.1 0.1l15.1 15q0.3 0.4 0.4 0.8c0.2 1.4 0.2 3 0.7 4.2 4 9.5 17.9-3.1 6.6-7.9q-0.4-0.2-0.8-0.1-2.3 0.5-3.2-0.4z"/>
		<path id="Layer" fill-rule="evenodd" class="s0" d="m239.1 60.5c-5.4-6.4-14.5 3.3-7 8.7q0.5 0.3 0.5 0.9l-0.3 4.2q-0.1 0.6-0.5 1l-7.6 7.6q-0.1 0.1-0.2 0.2-0.1 0.1-0.2 0.1-0.2 0-0.3 0.1-0.1 0-0.2 0c-12.7-1.1-6.1 16.8 2.4 9.6q2.1-1.7 1.6-5.5 0-0.1 0-0.2 0-0.1 0-0.2 0.1-0.2 0.1-0.3 0.1-0.1 0.2-0.1l9.5-9.6q0.1-0.1 0.2-0.2 0.1-0.1 0.1-0.2 0-0.1 0.1-0.2 0-0.1 0-0.3v-6.1q0-0.5 0.3-0.8 4.9-4.3 1.3-8.7z"/>
		<path id="Layer" fill-rule="evenodd" class="s0" d="m189.8 108.6c2-4-1.2-8.9-5.9-8.1q-0.1 0.1-0.2 0.1-0.1 0-0.2 0-0.1-0.1-0.2-0.1-0.1 0-0.2-0.1c-5.2-2.4-5-14.3 1.3-15.2 3.3-0.5 5.8-1.6 6-5 0.6-8-12.2-8.7-11.3 1q0 0.6-0.4 0.9l-3.6 3.6q-0.4 0.4-0.4 1v12.4q0 0.5 0.4 0.9l3.8 3.8q0.4 0.4 0.3 0.9c-1.4 6.9 7.7 9.5 10.6 3.9z"/>
		<path id="Layer" fill-rule="evenodd" class="s0" d="m52.3 90q17.2 17.7 34.8 34.9c2.7 2.7 2.2 2.2 6.1 2.2q25.1-0.1 50.2 0.2 0.6 0 0.9 0.4l19 19q0.2 0.2 0.4 0.4 0.1 0.3 0.2 0.5 0.2 0.3 0.2 0.6 0.1 0.3 0.1 0.6 0 17.6 0.1 35.5c0 1.2-0.7 1.8-1.7 2.4q-0.4 0.2-0.7 0.6c-2.3 4.5 0.2 9.2 5.2 9.1 5.4-0.1 7-7.3 2.6-10.5q-0.4-0.4-0.4-0.9v-39.3q-0.1-0.1-0.1-0.2 0-0.2-0.1-0.3 0-0.2-0.1-0.3-0.1-0.1-0.2-0.2l-22.4-22.4q-0.3-0.3-0.7-0.3h-53.4q-0.3 0-0.6-0.1-0.2 0-0.5-0.1-0.2-0.1-0.5-0.3-0.2-0.1-0.4-0.3l-34.5-34.5q-0.3-0.3-0.2-0.8c1.4-10-13.1-9-11-0.2q1.1 4.8 6.6 4 0.1-0.1 0.3 0 0.1 0 0.3 0 0.1 0.1 0.3 0.2 0.1 0 0.2 0.1z"/>
		<path id="Layer" fill-rule="evenodd" class="s0" d="m251.8 81.2c-4.4-3.6-10.3 0.1-9.3 5.7q0.1 0.1 0.1 0.3 0 0.1-0.1 0.3 0 0.1-0.1 0.2-0.1 0.2-0.2 0.3l-26.1 25.8q-0.2 0.2-0.3 0.4-0.1 0.1-0.1 0.3-0.1 0.2-0.2 0.4 0 0.2 0 0.4v32.1q0 0.4-0.1 0.7 0 0.4-0.2 0.7-0.1 0.4-0.3 0.7-0.2 0.3-0.5 0.5l-17 16.9q-0.4 0.4-0.4 1.1v51.5q0 0.1 0 0.2 0 0.1-0.1 0.2 0 0.1-0.1 0.2-0.1 0.1-0.2 0.2c-9.2 7.1 5.5 15.9 8.5 6.7q1.2-3.8-2.8-6.7-0.1 0-0.1-0.1-0.1-0.1-0.1-0.2-0.1 0-0.1-0.1 0-0.1 0-0.2l0.2-49.5q0-0.8 0.5-1.3l17.5-17.5q0.3-0.3 0.3-0.7v-33.5q0-0.1 0-0.2 0.1-0.2 0.1-0.3 0.1-0.2 0.2-0.3 0-0.1 0.1-0.2l24.8-24.8q0.4-0.4 0.9-0.4c1.3-0.1 2.3 0.1 3.3-0.3 3.9-1.4 5.6-6.5 1.9-9.5z"/>
		<path id="Layer" fill-rule="evenodd" class="s0" d="m79.9 141.6c-9.9-10.1-20.1-19.9-30.1-29.9-1.2-1.2-1.3-2.3-1-3.9q0-0.1 0-0.3 0-0.1 0-0.2 0-0.1-0.1-0.2 0-0.2 0-0.3c-3.3-7.3-13.2-3.7-10.9 3.6q1.5 4.6 6.5 3.4 0.5-0.1 0.9 0.2l32.9 33q0.3 0.3 0.7 0.3h46.7q0.1-0.1 0.2 0 0.1 0 0.2 0 0.1 0.1 0.2 0.2 0.1 0 0.2 0.1c2.8 3.4 7.6 3.9 9.8-0.2 3.6-6.5-5.5-11.9-9.9-5.5q-0.1 0.1-0.2 0.1-0.1 0.1-0.2 0.2-0.1 0-0.2 0.1-0.1 0-0.3 0l-44.6-0.4q-0.1 0-0.2 0-0.1 0-0.2-0.1-0.1 0-0.2-0.1-0.1 0-0.2-0.1z"/>
		<path id="Layer" fill-rule="evenodd" class="s0" d="m234.5 150c4.2 1.6 7.9-2.5 7.4-6.5-0.2-1.7-1.4-2.7-2.6-3.8q-0.1-0.1-0.1-0.2-0.1-0.1-0.1-0.2-0.1-0.1-0.1-0.2 0-0.2 0-0.3c0.2-3.5-1.2-4.9 1.6-7.7q8.3-8.4 16.7-16.8 0.4-0.3 0.9-0.2c4.6 0.6 9.2-3.8 6.5-8.3-3.1-5-10.9-3.6-10.6 2.9q0.1 1.8-0.7 2.5-9.8 9.3-19.3 19.1-0.1 0.1-0.1 0.2-0.1 0.1-0.2 0.2 0 0.2 0 0.3-0.1 0.1 0 0.2v7.5q-0.1 0.2-0.1 0.3 0 0.1 0 0.2-0.1 0.1-0.2 0.2 0 0-0.1 0.1c-3.7 3.3-3.8 8.6 1.1 10.5z"/>
		<path id="Layer" fill-rule="evenodd" class="s0" d="m255 159.2l-20.5 0.1q-0.6 0-1.1 0.4l-17.9 18q-0.1 0-0.1 0.1-0.1 0.1-0.1 0.2 0 0.1-0.1 0.2 0 0.1 0 0.2l0.4 52.1q0 0.1-0.1 0.3 0 0.1 0 0.2-0.1 0.2-0.2 0.3 0 0.1-0.1 0.2c-10.6 9.9 9.9 16.8 8.2 3.4q-0.1-0.5-0.5-0.8c-3.2-2.8-2.7-5.2-2.7-9q0.1-22.2 0.4-44.4 0-0.5 0.3-0.9 6-6.3 12.3-12.3c1.8-1.8 2.4-3 5.2-3q10.7 0 21.6 0 0.5 0 0.5-0.5 0-11.4 0-22.8 0-1.8 2.6-3.7 0.4-0.3 0.9-0.2 5 0.5 6.6-3.5c3.8-9.1-12.4-11.5-10.7-1q0 0.2 0 0.3 0 0.1-0.1 0.3 0 0.1-0.1 0.2 0 0.1-0.1 0.2l-3.8 3.8q-0.1 0.1-0.1 0.1-0.1 0.1-0.1 0.2-0.1 0.1-0.1 0.2 0 0.1 0 0.2v20.4q0 0.5-0.5 0.5z"/>
		<path id="Layer" fill-rule="evenodd" class="s0" d="m36.1 138.4c10-9.7-8.5-16-8.5-4.9 0.1 2.2 1.2 3.3 2.7 4.7q0.4 0.4 0.4 1v17.3q0 0.6 0.5 1l15 15.2q0.4 0.4 0.4 0.9c-0.8 7 7.5 10.1 10.9 3.9 2.3-4.2-2.1-8.6-6.7-7.9q-0.1 0-0.3 0-0.1 0-0.2-0.1-0.1 0-0.2-0.1-0.1 0-0.2-0.1l-13.8-13.8q-0.1-0.1-0.1-0.2-0.1-0.1-0.2-0.2 0-0.1 0-0.2 0-0.1-0.1-0.3v-15.4q0.1-0.1 0.1-0.2 0-0.1 0-0.2 0.1-0.1 0.1-0.2 0.1-0.1 0.2-0.2z"/>
		<path id="Layer" fill-rule="evenodd" class="s0" d="m106.7 208.6c9 5.3 13.1-11.3 1.8-10.3q-0.2 0-0.3 0-0.1-0.1-0.2-0.1-0.1 0-0.2-0.1-0.1-0.1-0.2-0.2l-46.9-46.8q-0.4-0.4-0.4-0.9 0.3-6-4.7-6.9c-8.6-1.6-9.1 12.3 0.7 11.2q0.1-0.1 0.2 0 0.1 0 0.2 0 0.1 0 0.2 0.1 0.1 0.1 0.2 0.2l46.9 46.9q0.4 0.3 0.3 0.9-0.6 4.2 2.4 6z"/>
		<path id="Layer" fill-rule="evenodd" class="s0" d="m102.5 159.4q-0.1 0-0.3 0-0.1 0-0.3-0.1-0.1-0.1-0.2-0.2-0.2-0.1-0.3-0.2c-5.9-7.5-15 2.9-7.7 7.7q4.1 2.6 8-1.6 0.1-0.1 0.2-0.2 0.1-0.1 0.2-0.2 0.2 0 0.3-0.1 0.2 0 0.3 0h7.8q0.2 0 0.4 0.1 0.2 0.1 0.3 0.2 0.1 0.1 0.2 0.3 0.1 0.2 0.1 0.4v8q0 0.1 0 0.2-0.1 0.1-0.1 0.2-0.1 0.2-0.1 0.2-0.1 0.1-0.2 0.2c-3.6 2.4-3.8 6.6-0.6 9.3 5.6 4.7 12.9-3.9 6.7-9q-0.2-0.2-0.3-0.3-0.1-0.2-0.2-0.4-0.1-0.2-0.2-0.4 0-0.2 0-0.4v-13.1q0-0.6-0.5-0.6z"/>
		<path id="Layer" fill-rule="evenodd" class="s0" d="m142.9 257.2l-10.4 0.1q-0.7 0-0.2-0.5l18.5-18.6q0.1 0 0.2-0.1 0-0.1 0.1-0.2 0-0.1 0-0.2 0.1-0.1 0.1-0.3l-0.2-69.3q0-0.6 0.4-1 4.8-4.4 1.3-8.7c-5.1-6.2-14.7 2.7-7.1 8.5q0.1 0.1 0.2 0.2 0 0.1 0.1 0.2 0 0.1 0.1 0.2 0 0.1 0 0.3v66.7q0 0.3-0.1 0.5 0 0.3-0.1 0.5-0.1 0.3-0.3 0.5-0.1 0.2-0.3 0.4l-25.4 25.4q-0.5 0.5 0.2 0.5l22.7-0.1q0.1 0 0.2 0.1 0.1 0 0.2 0 0.1 0.1 0.2 0.2 0.1 0 0.2 0.1c4.6 6.3 13 1 10.1-5.1-2-4.2-7.1-4.4-10-0.7q-0.3 0.4-0.7 0.4z"/>
		<path id="Layer" fill-rule="evenodd" class="s0" d="m132.9 162.4c-6.3-2.2-9.9 5.7-4.5 10.4q0.1 0.1 0.2 0.2 0 0.1 0.1 0.2 0 0.1 0.1 0.2 0 0.1 0 0.2l-0.4 56.1q0 0.5-0.3 0.8l-13.8 13.8q-0.1 0.1-0.2 0.2-0.1 0-0.2 0.1-0.1 0-0.2 0-0.1 0-0.3 0-5.4-0.7-6.6 3.9c-2.2 8.8 12.6 10.1 11 0.1q0-0.2 0-0.3 0-0.1 0-0.2 0.1-0.1 0.1-0.2 0.1-0.1 0.2-0.2l15.3-15q0.3-0.3 0.3-0.8v-58.4q0-0.5 0.4-0.8c4.1-3.3 3.8-8.6-1.2-10.3z"/>
		<path id="Layer" fill-rule="evenodd" class="s0" d="m254 175.3c-3.8 2.8-7.9 0.8-12.4 1.3-3.7 0.4-7.2 5-9.5 7.7q-0.1 0.1-0.2 0.2 0 0.1-0.1 0.3 0 0.1 0 0.2 0 0.1 0 0.3v23.7q0 0.1 0 0.3 0 0.1 0.1 0.3 0 0.1 0.1 0.2 0.1 0.2 0.2 0.3l3.7 3.7q0.1 0.1 0.2 0.2 0 0.1 0.1 0.2 0 0.1 0 0.2 0.1 0.1 0.1 0.2c-0.4 11.1 12.9 7.8 11-0.1-1.5-5.9-7.5-2.1-9.8-6.3-1.7-3-0.7-14.6-0.7-18.6 0-4.4 4-7.9 8.3-7.9q3.5 0 7.1 0.1 0.5 0 0.8 0.3 3.8 4.9 8.3 1.6c5.8-4.3 0.1-13.8-7.3-8.4z"/>
		<path id="Layer" fill-rule="evenodd" class="s0" d="m79.1 198.7c-1.7-1.7-2-2.8-1.5-5q0-0.1 0-0.2 0-0.2 0-0.3 0-0.1 0-0.2-0.1-0.1-0.1-0.2-3.1-5.1-8-3c-6.3 2.8-2.9 11.6 4 10.6q0.1 0 0.2 0 0.1 0 0.2 0.1 0.1 0 0.2 0 0.1 0.1 0.1 0.2l29.9 29.8q0.1 0.1 0.1 0.2 0.1 0.2 0.1 0.3 0 0.2-0.1 0.3 0 0.2-0.1 0.3l-6.7 6.6q-0.1 0.1-0.2 0.1-0.1 0.1-0.2 0.2-0.1 0-0.2 0-0.2 0-0.3 0c-4.1-0.4-7.9 2.4-7.2 6.7 1.2 7.1 12.7 5.7 11.1-2.3q-0.1-0.1-0.1-0.2 0-0.1 0.1-0.3 0-0.1 0.1-0.2 0-0.1 0.1-0.2l10.7-10.6q0.3-0.3 0-0.7-15.9-16.2-32.2-32z"/>
		<path id="Layer" fill-rule="evenodd" class="s0" d="m68.5 223.7c1.3 1.1 1.1 1.8 1.2 3.3 0.4 9.9 15 5.3 10.5-2.9q-1.8-3.1-6.1-2.5-0.1 0-0.3 0-0.1 0-0.2-0.1-0.2 0-0.3-0.1-0.1-0.1-0.2-0.2l-18.4-18.4q-0.1-0.1-0.2-0.2 0-0.1 0-0.2-0.1-0.1-0.1-0.2 0-0.1 0-0.2c1.1-7-7.6-9.9-10.8-3.7-2.2 4.3 2 8.4 6.7 7.8q0.1 0 0.2 0 0.2 0.1 0.3 0.1 0.1 0 0.2 0.1 0.1 0.1 0.2 0.1 8.5 8.9 17.3 17.3z"/>
		<path id="Layer" fill-rule="evenodd" class="s0" d="m168.9 226.3l21.4 21.4q0.1 0.1 0.1 0.2 0.1 0.1 0.1 0.2 0.1 0.1 0.1 0.2 0 0.1 0 0.2c-0.6 4.6 2.4 7.8 7 6.9 6.9-1.3 5.4-11.8-2.7-10.9q-0.1 0-0.2 0-0.1 0-0.3-0.1-0.1 0-0.2-0.1-0.1 0-0.2-0.1l-30.3-30.4q-0.1 0-0.1-0.1-0.1 0-0.2 0-0.1 0.1-0.1 0.1-0.1 0.1-0.1 0.2v40q0 0.2 0 0.3 0 0.1-0.1 0.2 0 0.2-0.1 0.3-0.1 0.1-0.2 0.1c-6.1 4.5-0.5 13.4 5.9 9.8 3.1-1.8 3.9-6.2 1.1-8.9-1.9-1.8-1.5-2.4-1.5-4.8q-0.2-12.3 0.2-24.5 0.1-0.6 0.4-0.2z"/>
		<path id="Layer" fill-rule="evenodd" class="s0" d="m125.6 29.1q0.2-0.3 0.3-0.7 0.1-0.3 0-0.7-0.1-0.4-0.3-0.8-0.3-0.3-0.6-0.6-0.4-0.2-0.8-0.4-0.4-0.1-0.8 0-0.4 0-0.7 0.2-0.4 0.2-0.6 0.5-0.2 0.3-0.3 0.7-0.1 0.4 0 0.8 0.1 0.4 0.3 0.7 0.3 0.4 0.6 0.6 0.4 0.3 0.8 0.4 0.4 0.1 0.8 0.1 0.4-0.1 0.7-0.3 0.4-0.2 0.6-0.5z"/>
		<path id="Layer" fill-rule="evenodd" class="s0" d="m140.7 42.6q0-0.4-0.2-0.8-0.1-0.4-0.4-0.7-0.3-0.3-0.7-0.4-0.4-0.2-0.8-0.2-0.4 0-0.8 0.2-0.4 0.1-0.7 0.4-0.3 0.3-0.4 0.7-0.2 0.4-0.2 0.8 0 0.4 0.2 0.8 0.1 0.4 0.4 0.7 0.3 0.3 0.7 0.5 0.4 0.1 0.8 0.1 0.4 0 0.8-0.1 0.4-0.2 0.7-0.5 0.3-0.3 0.4-0.7 0.2-0.4 0.2-0.8z"/>
		<path id="Layer" fill-rule="evenodd" class="s0" d="m154.7 27.9q0-0.4-0.1-0.8-0.2-0.4-0.5-0.7-0.3-0.3-0.7-0.5-0.3-0.1-0.8-0.1-0.4 0-0.8 0.1-0.3 0.2-0.6 0.5-0.3 0.3-0.5 0.7-0.1 0.4-0.1 0.8 0 0.4 0.1 0.8 0.2 0.4 0.5 0.6 0.3 0.3 0.6 0.5 0.4 0.2 0.8 0.2 0.5 0 0.8-0.2 0.4-0.2 0.7-0.5 0.3-0.2 0.5-0.6 0.1-0.4 0.1-0.8z"/>
		<path id="Layer" fill-rule="evenodd" class="s0" d="m133.4 64.1q0-0.4-0.1-0.8-0.2-0.4-0.5-0.7-0.3-0.3-0.7-0.5-0.4-0.2-0.8-0.2-0.4 0-0.8 0.2-0.4 0.2-0.7 0.5-0.3 0.3-0.5 0.7-0.2 0.4-0.2 0.8 0 0.4 0.2 0.8 0.2 0.4 0.5 0.7 0.3 0.3 0.7 0.5 0.4 0.1 0.8 0.1 0.4 0 0.8-0.1 0.4-0.2 0.7-0.5 0.3-0.3 0.5-0.7 0.1-0.4 0.1-0.8z"/>
		<path id="Layer" fill-rule="evenodd" class="s0" d="m191 35.4q0-0.5-0.2-0.8-0.1-0.4-0.4-0.7-0.3-0.3-0.7-0.5-0.4-0.1-0.8-0.1-0.4 0-0.8 0.1-0.4 0.2-0.7 0.5-0.3 0.3-0.5 0.7-0.1 0.3-0.1 0.8 0 0.4 0.1 0.8 0.2 0.3 0.5 0.6 0.3 0.3 0.7 0.5 0.4 0.1 0.8 0.2 0.4-0.1 0.8-0.2 0.4-0.2 0.7-0.5 0.3-0.3 0.4-0.6 0.2-0.4 0.2-0.8z"/>
		<path id="Layer" fill-rule="evenodd" class="s0" d="m133.4 81.3q0-0.4-0.1-0.8-0.2-0.4-0.5-0.7-0.3-0.3-0.7-0.4-0.4-0.2-0.8-0.2-0.4 0-0.8 0.2-0.4 0.1-0.7 0.4-0.3 0.3-0.4 0.7-0.2 0.4-0.2 0.8 0 0.5 0.2 0.8 0.1 0.4 0.4 0.7 0.3 0.3 0.7 0.5 0.4 0.1 0.8 0.2 0.4-0.1 0.8-0.2 0.4-0.2 0.7-0.5 0.3-0.3 0.5-0.7 0.1-0.3 0.1-0.8z"/>
		<path id="Layer" fill-rule="evenodd" class="s0" d="m103.9 35.4q0-0.5-0.2-0.8-0.1-0.4-0.4-0.7-0.3-0.3-0.7-0.5-0.4-0.1-0.8-0.1-0.4 0-0.8 0.1-0.4 0.2-0.7 0.5-0.3 0.3-0.4 0.7-0.2 0.3-0.2 0.7 0 0.5 0.2 0.8 0.1 0.4 0.4 0.7 0.3 0.3 0.7 0.5 0.4 0.1 0.8 0.1 0.4 0 0.8-0.1 0.4-0.2 0.7-0.5 0.3-0.3 0.4-0.7 0.2-0.3 0.2-0.7z"/>
		<path id="Layer" fill-rule="evenodd" class="s0" d="m185.2 208.5q0-0.4-0.2-0.8-0.1-0.4-0.4-0.7-0.3-0.2-0.7-0.4-0.4-0.2-0.8-0.2-0.4 0-0.8 0.2-0.4 0.2-0.7 0.4-0.3 0.3-0.5 0.7-0.1 0.4-0.1 0.8 0 0.4 0.1 0.8 0.2 0.4 0.5 0.7 0.3 0.3 0.7 0.5 0.4 0.1 0.8 0.1 0.4 0 0.8-0.1 0.4-0.2 0.7-0.5 0.3-0.3 0.4-0.7 0.2-0.4 0.2-0.8z"/>
		<path id="Layer" fill-rule="evenodd" class="s0" d="m214 46.9q0-0.4-0.2-0.8-0.2-0.4-0.4-0.7-0.3-0.3-0.7-0.4-0.4-0.2-0.8-0.2-0.4 0-0.8 0.2-0.4 0.1-0.7 0.4-0.3 0.3-0.4 0.7-0.2 0.4-0.2 0.8 0 0.4 0.2 0.8 0.1 0.3 0.4 0.6 0.3 0.3 0.7 0.5 0.4 0.1 0.8 0.1 0.4 0 0.8-0.1 0.4-0.2 0.7-0.5 0.2-0.3 0.4-0.6 0.2-0.4 0.2-0.8z"/>
		<path id="Layer" fill-rule="evenodd" class="s0" d="m202.4 138.8q0-0.4-0.1-0.8-0.2-0.3-0.5-0.6-0.3-0.3-0.6-0.5-0.4-0.1-0.8-0.1-0.4 0-0.8 0.1-0.4 0.2-0.7 0.5-0.3 0.3-0.4 0.6-0.2 0.4-0.2 0.8 0 0.4 0.2 0.8 0.1 0.4 0.4 0.7 0.3 0.3 0.7 0.4 0.4 0.2 0.8 0.2 0.4 0 0.8-0.2 0.3-0.1 0.6-0.4 0.3-0.3 0.5-0.7 0.1-0.4 0.1-0.8z"/>
		<path id="Layer" fill-rule="evenodd" class="s0" d="m68.3 60.4q0-0.4-0.1-0.8-0.2-0.4-0.5-0.7-0.3-0.3-0.7-0.4-0.3-0.2-0.8-0.2-0.4 0-0.8 0.2-0.4 0.1-0.7 0.4-0.2 0.3-0.4 0.7-0.2 0.4-0.2 0.8 0 0.4 0.2 0.8 0.2 0.4 0.4 0.7 0.3 0.3 0.7 0.4 0.4 0.2 0.8 0.2 0.5 0 0.8-0.2 0.4-0.1 0.7-0.4 0.3-0.3 0.5-0.7 0.1-0.4 0.1-0.8z"/>
		<path id="Layer" fill-rule="evenodd" class="s0" d="m100.3 106q0-0.4-0.1-0.8-0.2-0.4-0.5-0.7-0.3-0.3-0.7-0.4-0.3-0.2-0.7-0.2-0.5 0-0.8 0.2-0.4 0.1-0.7 0.4-0.3 0.3-0.5 0.7-0.1 0.4-0.1 0.8 0 0.4 0.1 0.8 0.2 0.4 0.5 0.7 0.3 0.2 0.7 0.4 0.3 0.2 0.8 0.2 0.4 0 0.7-0.2 0.4-0.2 0.7-0.4 0.3-0.3 0.5-0.7 0.1-0.4 0.1-0.8z"/>
		<path id="Layer" fill-rule="evenodd" class="s0" d="m237 64.2q0-0.4-0.2-0.8-0.1-0.3-0.4-0.6-0.3-0.3-0.7-0.5-0.4-0.1-0.8-0.1-0.4 0-0.7 0.1-0.4 0.2-0.7 0.5-0.3 0.3-0.5 0.6-0.1 0.4-0.1 0.8 0 0.4 0.1 0.8 0.2 0.4 0.5 0.7 0.3 0.3 0.7 0.4 0.3 0.2 0.7 0.2 0.4 0 0.8-0.2 0.4-0.1 0.7-0.4 0.3-0.3 0.4-0.7 0.2-0.4 0.2-0.8z"/>
		<path id="Layer" fill-rule="evenodd" class="s0" d="m223.9 88.7q0-0.4-0.1-0.8-0.2-0.4-0.5-0.7-0.3-0.3-0.7-0.4-0.4-0.2-0.8-0.2-0.4 0-0.8 0.2-0.4 0.1-0.7 0.4-0.3 0.3-0.4 0.7-0.2 0.4-0.2 0.8 0 0.4 0.2 0.8 0.1 0.4 0.4 0.7 0.3 0.3 0.7 0.5 0.4 0.1 0.8 0.1 0.4 0 0.8-0.1 0.4-0.2 0.7-0.5 0.3-0.3 0.5-0.7 0.1-0.4 0.1-0.8z"/>
		<path id="Layer" fill-rule="evenodd" class="s0" d="m186.8 79.7q0-0.4-0.2-0.8-0.1-0.4-0.4-0.6-0.3-0.3-0.7-0.5-0.4-0.1-0.8-0.1-0.4 0-0.8 0.1-0.4 0.2-0.6 0.5-0.3 0.2-0.5 0.6-0.1 0.4-0.2 0.8 0.1 0.4 0.2 0.8 0.2 0.4 0.5 0.7 0.2 0.3 0.6 0.4 0.4 0.2 0.8 0.2 0.4 0 0.8-0.2 0.4-0.1 0.7-0.4 0.3-0.3 0.4-0.7 0.2-0.4 0.2-0.8z"/>
		<path id="Layer" fill-rule="evenodd" class="s0" d="m186.8 106q0-0.4-0.2-0.8-0.1-0.3-0.4-0.6-0.3-0.3-0.7-0.5-0.4-0.2-0.8-0.2-0.4 0-0.8 0.2-0.4 0.2-0.7 0.5-0.3 0.3-0.4 0.6-0.2 0.4-0.2 0.8 0 0.5 0.2 0.8 0.1 0.4 0.4 0.7 0.3 0.3 0.7 0.5 0.4 0.1 0.8 0.1 0.4 0 0.8-0.1 0.4-0.2 0.7-0.5 0.3-0.3 0.4-0.7 0.2-0.3 0.2-0.8z"/>
		<path id="Layer" fill-rule="evenodd" class="s0" d="m52.1 84.3q0-0.4-0.1-0.7-0.2-0.4-0.5-0.7-0.3-0.3-0.6-0.5-0.4-0.1-0.8-0.1-0.5 0-0.8 0.1-0.4 0.2-0.7 0.5-0.3 0.3-0.5 0.7-0.1 0.3-0.1 0.8 0 0.4 0.1 0.7 0.2 0.4 0.5 0.7 0.3 0.3 0.7 0.5 0.3 0.1 0.8 0.1 0.4 0 0.8-0.1 0.3-0.2 0.6-0.5 0.3-0.3 0.5-0.7 0.1-0.3 0.1-0.8z"/>
		<path id="Layer" fill-rule="evenodd" class="s0" d="m168.8 190.7q0-0.5-0.2-0.9-0.2-0.3-0.5-0.6-0.3-0.3-0.6-0.5-0.4-0.2-0.9-0.2-0.4 0-0.8 0.2-0.4 0.2-0.7 0.5-0.3 0.3-0.4 0.6-0.2 0.4-0.2 0.9 0 0.4 0.2 0.8 0.1 0.4 0.4 0.7 0.3 0.3 0.7 0.4 0.4 0.2 0.8 0.2 0.5 0 0.9-0.2 0.3-0.1 0.6-0.4 0.3-0.3 0.5-0.7 0.2-0.4 0.2-0.8z"/>
		<path id="Layer" fill-rule="evenodd" class="s0" d="m250.2 85.5q0-0.5-0.2-0.8-0.1-0.4-0.4-0.7-0.3-0.3-0.7-0.5-0.4-0.1-0.8-0.1-0.4 0-0.8 0.1-0.3 0.2-0.6 0.5-0.3 0.3-0.5 0.7-0.1 0.3-0.1 0.8 0 0.4 0.1 0.7 0.2 0.4 0.5 0.7 0.3 0.3 0.6 0.5 0.4 0.1 0.8 0.1 0.4 0 0.8-0.1 0.4-0.2 0.7-0.5 0.3-0.3 0.4-0.7 0.2-0.3 0.2-0.7z"/>
		<path id="Layer" fill-rule="evenodd" class="s0" d="m201.6 225.2q-0.1-0.4-0.2-0.8-0.2-0.4-0.5-0.7-0.2-0.3-0.6-0.4-0.4-0.2-0.8-0.2-0.4 0-0.8 0.2-0.4 0.1-0.7 0.4-0.3 0.3-0.4 0.7-0.2 0.4-0.2 0.8 0 0.4 0.2 0.8 0.1 0.3 0.4 0.6 0.3 0.3 0.7 0.5 0.4 0.1 0.8 0.1 0.4 0 0.8-0.1 0.4-0.2 0.6-0.5 0.3-0.3 0.5-0.6 0.1-0.4 0.2-0.8z"/>
		<path id="Layer" fill-rule="evenodd" class="s0" d="m45.3 108.5q-0.1-0.4-0.2-0.8-0.2-0.4-0.5-0.7-0.3-0.3-0.6-0.4-0.4-0.2-0.8-0.2-0.5 0-0.8 0.2-0.4 0.1-0.7 0.4-0.3 0.3-0.5 0.7-0.1 0.4-0.1 0.8 0 0.4 0.1 0.8 0.2 0.4 0.5 0.7 0.3 0.3 0.7 0.5 0.3 0.1 0.8 0.1 0.4 0 0.8-0.1 0.3-0.2 0.6-0.5 0.3-0.3 0.5-0.7 0.1-0.4 0.2-0.8z"/>
		<path id="Layer" fill-rule="evenodd" class="s0" d="m133.2 144.7q0-0.4-0.2-0.8-0.1-0.4-0.4-0.7-0.3-0.3-0.7-0.4-0.3-0.2-0.7-0.2-0.4 0-0.8 0.2-0.4 0.1-0.7 0.4-0.2 0.3-0.4 0.7-0.1 0.4-0.1 0.8 0 0.3 0.1 0.7 0.2 0.4 0.4 0.7 0.3 0.3 0.7 0.4 0.4 0.2 0.8 0.2 0.4 0 0.7-0.2 0.4-0.1 0.7-0.4 0.3-0.3 0.4-0.7 0.2-0.4 0.2-0.7z"/>
		<path id="Layer" fill-rule="evenodd" class="s0" d="m261.6 108.5q0-0.4-0.2-0.8-0.1-0.3-0.4-0.6-0.3-0.3-0.7-0.5-0.4-0.1-0.8-0.1-0.4 0-0.7 0.1-0.4 0.2-0.7 0.5-0.3 0.3-0.5 0.6-0.1 0.4-0.1 0.8 0 0.4 0.1 0.8 0.2 0.4 0.5 0.7 0.3 0.3 0.7 0.4 0.3 0.2 0.7 0.2 0.4 0 0.8-0.2 0.4-0.1 0.7-0.4 0.3-0.3 0.4-0.7 0.2-0.4 0.2-0.8z"/>
		<path id="Layer" fill-rule="evenodd" class="s0" d="m238.4 144.6q0-0.4-0.2-0.7-0.1-0.4-0.4-0.7-0.3-0.3-0.7-0.5-0.4-0.1-0.8-0.1-0.4 0-0.8 0.1-0.3 0.2-0.6 0.5-0.3 0.3-0.5 0.7-0.1 0.3-0.1 0.7 0 0.4 0.1 0.8 0.2 0.4 0.5 0.7 0.3 0.3 0.6 0.4 0.4 0.2 0.8 0.2 0.4 0 0.8-0.2 0.4-0.1 0.7-0.4 0.3-0.3 0.4-0.7 0.2-0.4 0.2-0.8z"/>
		<path id="Layer" fill-rule="evenodd" class="s0" d="m267.5 131.5q0-0.4-0.1-0.8-0.2-0.3-0.5-0.6-0.3-0.3-0.7-0.5-0.4-0.1-0.8-0.2-0.4 0.1-0.8 0.2-0.4 0.2-0.7 0.5-0.3 0.3-0.4 0.6-0.2 0.4-0.2 0.8 0 0.5 0.2 0.8 0.1 0.4 0.4 0.7 0.3 0.3 0.7 0.5 0.4 0.1 0.8 0.1 0.4 0 0.8-0.1 0.4-0.2 0.7-0.5 0.3-0.3 0.5-0.7 0.1-0.3 0.1-0.8z"/>
		<path id="Layer" fill-rule="evenodd" class="s0" d="m219.9 236.7q0-0.4-0.1-0.8-0.2-0.3-0.5-0.6-0.3-0.3-0.6-0.5-0.4-0.1-0.8-0.1-0.4 0-0.8 0.1-0.4 0.2-0.7 0.5-0.3 0.3-0.4 0.6-0.2 0.4-0.2 0.8 0 0.4 0.2 0.8 0.1 0.4 0.4 0.7 0.3 0.3 0.7 0.4 0.4 0.2 0.8 0.2 0.4 0 0.8-0.2 0.3-0.1 0.6-0.4 0.3-0.3 0.5-0.7 0.1-0.4 0.1-0.8z"/>
		<path id="Layer" fill-rule="evenodd" class="s0" d="m35.4 133.3q-0.1-0.4-0.2-0.8-0.2-0.4-0.5-0.7-0.2-0.3-0.6-0.4-0.4-0.2-0.8-0.2-0.4 0-0.8 0.2-0.4 0.1-0.6 0.4-0.3 0.3-0.5 0.7-0.1 0.4-0.2 0.8 0.1 0.4 0.2 0.8 0.2 0.3 0.5 0.6 0.2 0.3 0.6 0.5 0.4 0.1 0.8 0.1 0.4 0 0.8-0.1 0.4-0.2 0.6-0.5 0.3-0.3 0.5-0.6 0.1-0.4 0.2-0.8z"/>
		<path id="Layer" fill-rule="evenodd" class="s0" d="m54.3 175.1q0-0.4-0.2-0.8-0.2-0.3-0.4-0.6-0.3-0.3-0.7-0.5-0.4-0.2-0.8-0.2-0.4 0-0.8 0.2-0.4 0.2-0.7 0.5-0.3 0.3-0.5 0.6-0.1 0.4-0.1 0.8 0 0.5 0.1 0.8 0.2 0.4 0.5 0.7 0.3 0.3 0.7 0.5 0.4 0.1 0.8 0.1 0.4 0 0.8-0.1 0.4-0.2 0.7-0.5 0.2-0.3 0.4-0.7 0.2-0.3 0.2-0.8z"/>
		<path id="Layer" fill-rule="evenodd" class="s0" d="m56.8 148.8q0-0.4-0.2-0.8-0.2-0.4-0.5-0.6-0.3-0.3-0.6-0.5-0.4-0.2-0.9-0.2-0.4 0-0.8 0.2-0.4 0.2-0.7 0.5-0.3 0.2-0.4 0.6-0.2 0.4-0.2 0.8 0 0.5 0.2 0.9 0.1 0.4 0.4 0.6 0.3 0.3 0.7 0.5 0.4 0.2 0.8 0.2 0.5 0 0.9-0.2 0.3-0.2 0.6-0.5 0.3-0.2 0.5-0.6 0.2-0.4 0.2-0.9z"/>
		<path id="Layer" fill-rule="evenodd" class="s0" d="m111.8 203.9q0-0.4-0.1-0.8-0.2-0.4-0.5-0.6-0.3-0.3-0.6-0.5-0.4-0.1-0.8-0.1-0.4 0-0.8 0.1-0.3 0.2-0.6 0.5-0.3 0.2-0.5 0.6-0.1 0.4-0.1 0.8 0 0.4 0.1 0.8 0.2 0.3 0.5 0.6 0.3 0.3 0.6 0.5 0.4 0.1 0.8 0.1 0.4 0 0.8-0.1 0.3-0.2 0.6-0.5 0.3-0.3 0.5-0.6 0.1-0.4 0.1-0.8z"/>
		<path id="Layer" fill-rule="evenodd" class="s0" d="m98.7 161.9q0-0.4-0.2-0.7-0.1-0.4-0.4-0.7-0.3-0.3-0.6-0.4-0.4-0.2-0.8-0.2-0.4 0-0.8 0.2-0.3 0.1-0.6 0.4-0.3 0.3-0.5 0.7-0.1 0.3-0.1 0.7 0 0.4 0.1 0.8 0.2 0.4 0.5 0.6 0.3 0.3 0.6 0.5 0.4 0.1 0.8 0.1 0.4 0 0.8-0.1 0.3-0.2 0.6-0.5 0.3-0.2 0.4-0.6 0.2-0.4 0.2-0.8z"/>
		<path id="Layer" fill-rule="evenodd" class="s0" d="m116 179.1q0-0.4-0.1-0.8-0.2-0.3-0.5-0.6-0.3-0.3-0.7-0.5-0.4-0.1-0.8-0.1-0.4 0-0.8 0.1-0.4 0.2-0.7 0.5-0.3 0.3-0.4 0.6-0.2 0.4-0.2 0.8 0 0.5 0.2 0.8 0.1 0.4 0.4 0.7 0.3 0.3 0.7 0.5 0.4 0.1 0.8 0.1 0.4 0 0.8-0.1 0.4-0.2 0.7-0.5 0.3-0.3 0.5-0.7 0.1-0.3 0.1-0.8z"/>
		<path id="Layer" fill-rule="evenodd" class="s0" d="m148.9 164.3q0.4-0.1 0.8-0.4 0.3-0.2 0.5-0.5 0.2-0.4 0.3-0.8 0.1-0.5 0-0.9-0.1-0.4-0.3-0.8-0.2-0.4-0.6-0.6-0.3-0.3-0.7-0.4-0.4-0.1-0.8 0-0.4 0.1-0.7 0.3-0.3 0.2-0.5 0.6-0.3 0.4-0.3 0.8-0.1 0.4 0 0.8 0.1 0.5 0.3 0.8 0.2 0.4 0.5 0.7 0.4 0.2 0.8 0.3 0.3 0.1 0.7 0.1z"/>
		<path id="Layer" fill-rule="evenodd" class="s0" d="m150.5 259.8q0-0.4-0.2-0.7-0.1-0.4-0.4-0.7-0.3-0.3-0.7-0.4-0.4-0.2-0.8-0.2-0.4 0-0.7 0.2-0.4 0.1-0.7 0.4-0.3 0.3-0.4 0.7-0.2 0.3-0.2 0.7 0 0.4 0.2 0.8 0.1 0.4 0.4 0.7 0.3 0.3 0.7 0.4 0.3 0.2 0.7 0.2 0.4 0 0.8-0.2 0.4-0.1 0.7-0.4 0.3-0.3 0.4-0.7 0.2-0.4 0.2-0.8z"/>
		<path id="Layer" fill-rule="evenodd" class="s0" d="m133.3 167.8q0-0.4-0.1-0.8-0.2-0.4-0.5-0.7-0.3-0.3-0.7-0.4-0.3-0.2-0.8-0.2-0.4 0-0.7 0.2-0.4 0.1-0.7 0.4-0.3 0.3-0.5 0.7-0.1 0.4-0.1 0.8 0 0.4 0.1 0.8 0.2 0.4 0.5 0.7 0.3 0.3 0.7 0.4 0.3 0.2 0.7 0.2 0.5 0 0.8-0.2 0.4-0.1 0.7-0.4 0.3-0.3 0.5-0.7 0.1-0.4 0.1-0.8z"/>
		<path id="Layer" fill-rule="evenodd" class="s0" d="m114.3 250q0-0.4-0.1-0.8-0.2-0.4-0.5-0.7-0.2-0.3-0.6-0.4-0.4-0.2-0.8-0.2-0.4 0-0.8 0.2-0.4 0.1-0.7 0.4-0.3 0.3-0.4 0.7-0.2 0.4-0.2 0.8 0 0.4 0.2 0.7 0.1 0.4 0.4 0.7 0.3 0.3 0.7 0.5 0.4 0.1 0.8 0.1 0.4 0 0.8-0.1 0.4-0.2 0.6-0.5 0.3-0.3 0.5-0.7 0.1-0.3 0.1-0.7z"/>
		<path id="Layer" fill-rule="evenodd" class="s0" d="m260 179.3q0-0.4-0.2-0.8-0.1-0.4-0.4-0.7-0.3-0.3-0.7-0.5-0.4-0.1-0.8-0.1-0.4 0-0.8 0.1-0.4 0.2-0.7 0.5-0.2 0.3-0.4 0.7-0.2 0.4-0.2 0.8 0 0.4 0.2 0.8 0.2 0.3 0.4 0.6 0.3 0.3 0.7 0.5 0.4 0.1 0.8 0.1 0.4 0 0.8-0.1 0.4-0.2 0.7-0.5 0.3-0.3 0.4-0.6 0.2-0.4 0.2-0.8z"/>
		<path id="Layer" fill-rule="evenodd" class="s0" d="m243.8 216.1q0-0.4-0.2-0.8-0.1-0.4-0.4-0.7-0.3-0.3-0.7-0.4-0.4-0.2-0.8-0.2-0.4 0-0.8 0.2-0.4 0.1-0.7 0.4-0.3 0.3-0.5 0.7-0.1 0.4-0.1 0.8 0 0.4 0.1 0.8 0.2 0.4 0.5 0.7 0.3 0.3 0.7 0.5 0.4 0.1 0.8 0.1 0.4 0 0.8-0.1 0.4-0.2 0.7-0.5 0.3-0.3 0.4-0.7 0.2-0.4 0.2-0.8z"/>
		<path id="Layer" fill-rule="evenodd" class="s0" d="m74.1 194.9q0-0.4-0.2-0.8-0.1-0.4-0.4-0.7-0.3-0.3-0.7-0.4-0.4-0.2-0.8-0.2-0.4 0-0.8 0.2-0.4 0.1-0.7 0.4-0.3 0.3-0.5 0.7-0.1 0.4-0.1 0.8 0 0.4 0.1 0.8 0.2 0.4 0.5 0.7 0.3 0.3 0.7 0.5 0.4 0.1 0.8 0.1 0.4 0 0.8-0.1 0.4-0.2 0.7-0.5 0.3-0.3 0.4-0.7 0.2-0.4 0.2-0.8z"/>
		<path id="Layer" fill-rule="evenodd" class="s0" d="m97.2 244.2q0-0.4-0.2-0.8-0.1-0.4-0.4-0.7-0.3-0.3-0.7-0.4-0.4-0.2-0.8-0.2-0.4 0-0.8 0.2-0.4 0.1-0.7 0.4-0.3 0.3-0.5 0.7-0.1 0.4-0.1 0.8 0 0.4 0.1 0.8 0.2 0.4 0.5 0.7 0.3 0.3 0.7 0.4 0.4 0.2 0.8 0.2 0.4 0 0.8-0.2 0.4-0.1 0.7-0.4 0.3-0.3 0.4-0.7 0.2-0.4 0.2-0.8z"/>
		<path id="Layer" fill-rule="evenodd" class="s0" d="m51 200.6q0-0.4-0.2-0.8-0.1-0.4-0.4-0.6-0.3-0.3-0.7-0.5-0.4-0.2-0.8-0.2-0.4 0-0.8 0.2-0.4 0.2-0.7 0.5-0.3 0.2-0.4 0.6-0.2 0.4-0.2 0.8 0 0.4 0.2 0.8 0.1 0.4 0.4 0.7 0.3 0.3 0.7 0.5 0.4 0.1 0.8 0.1 0.4 0 0.8-0.1 0.4-0.2 0.7-0.5 0.3-0.3 0.4-0.7 0.2-0.4 0.2-0.8z"/>
		<path id="Layer" fill-rule="evenodd" class="s0" d="m77.3 226.9q0-0.4-0.2-0.8-0.1-0.4-0.4-0.7-0.3-0.3-0.7-0.5-0.4-0.1-0.8-0.1-0.4 0-0.8 0.1-0.4 0.2-0.7 0.5-0.3 0.3-0.5 0.7-0.1 0.4-0.1 0.8 0 0.4 0.1 0.8 0.2 0.4 0.5 0.7 0.3 0.3 0.7 0.4 0.4 0.2 0.8 0.2 0.4 0 0.8-0.2 0.4-0.1 0.7-0.4 0.3-0.3 0.4-0.7 0.2-0.4 0.2-0.8z"/>
		<path id="Layer" fill-rule="evenodd" class="s0" d="m198.3 250q0-0.4-0.2-0.8-0.1-0.4-0.4-0.7-0.3-0.2-0.7-0.4-0.4-0.1-0.8-0.2-0.4 0.1-0.7 0.2-0.4 0.2-0.7 0.4-0.3 0.3-0.4 0.7-0.2 0.4-0.2 0.8 0 0.4 0.2 0.8 0.1 0.3 0.4 0.6 0.3 0.3 0.7 0.5 0.3 0.1 0.7 0.1 0.4 0 0.8-0.1 0.4-0.2 0.7-0.5 0.3-0.3 0.4-0.6 0.2-0.4 0.2-0.8z"/>
		<path id="Layer" fill-rule="evenodd" class="s0" d="m167.8 259.8q0-0.4-0.1-0.8-0.2-0.4-0.5-0.7-0.2-0.3-0.6-0.4-0.4-0.2-0.8-0.2-0.4 0-0.8 0.2-0.4 0.1-0.6 0.4-0.3 0.3-0.5 0.7-0.1 0.4-0.2 0.8 0.1 0.4 0.2 0.7 0.2 0.4 0.5 0.7 0.2 0.3 0.6 0.5 0.4 0.1 0.8 0.1 0.4 0 0.8-0.1 0.4-0.2 0.6-0.5 0.3-0.3 0.5-0.7 0.1-0.3 0.1-0.7z"/>
	</g>
	<path id="Layer" fill-rule="evenodd" class="s1" d="m132.6 40.3l-6.5-6.6q-0.3-0.3-0.8-0.3c-4.4 0.5-8.6-3.1-6.9-7.5 2.6-6.6 12.1-3.8 11 3.4q0 0.5 0.3 0.9l6.7 6.6q0.1 0 0.2 0.1 0.1 0 0.2 0.1 0.1 0 0.2 0 0.1 0 0.2 0c3.7-0.3 7.1 1.7 7 5.7-0.1 5.8-7.3 7.8-10.5 2.8-0.9-1.5-0.6-2.6-0.7-4.3q-0.1-0.5-0.4-0.9zm-7-11.2q0.2-0.3 0.3-0.7 0.1-0.3 0-0.7-0.1-0.4-0.3-0.8-0.3-0.3-0.6-0.6-0.4-0.2-0.8-0.4-0.4-0.1-0.8 0-0.4 0-0.7 0.2-0.4 0.2-0.6 0.5-0.2 0.3-0.3 0.7-0.1 0.4 0 0.8 0.1 0.4 0.3 0.7 0.3 0.4 0.6 0.6 0.4 0.3 0.8 0.4 0.4 0.1 0.8 0.1 0.4-0.1 0.7-0.3 0.4-0.2 0.6-0.5zm15.1 13.5q0-0.4-0.2-0.8-0.1-0.4-0.4-0.7-0.3-0.3-0.7-0.4-0.4-0.2-0.8-0.2-0.4 0-0.8 0.2-0.4 0.1-0.7 0.4-0.3 0.3-0.4 0.7-0.2 0.4-0.2 0.8 0 0.4 0.2 0.8 0.1 0.4 0.4 0.7 0.3 0.3 0.7 0.5 0.4 0.1 0.8 0.1 0.4 0 0.8-0.1 0.4-0.2 0.7-0.5 0.3-0.3 0.4-0.7 0.2-0.4 0.2-0.8z"/>
	<path id="Layer" fill-rule="evenodd" class="s1" d="m135.9 67.3c-4.9 7.1-15.2-2.4-7.9-7.8q4.3-3.1 8.2 1.6 0.3 0.4 0.8 0.4h15.5q0.1 0 0.3 0 0.1-0.1 0.3-0.1 0.1-0.1 0.2-0.2 0.1 0 0.2-0.1l14-13.9q0.4-0.4 0-0.8l-12.7-12.7q-0.1-0.1-0.2-0.2-0.1 0-0.2-0.1-0.1 0-0.2 0-0.1 0-0.3 0-4.3 0.6-6.1-2.5c-4.2-7.1 6.4-12.5 10-5.2 0.9 1.8-0.3 3.5 1.3 5.1q7.8 7.7 15.6 15.5 0.4 0.5 0 0.9l-19 19q-0.1 0-0.2 0.1-0.1 0.1-0.2 0.1-0.1 0.1-0.2 0.1-0.1 0-0.2 0h-17.6q-0.2 0.1-0.4 0.1-0.2 0-0.4 0.1-0.2 0.1-0.3 0.3-0.2 0.1-0.3 0.3zm18.8-39.4q0-0.4-0.1-0.8-0.2-0.4-0.5-0.7-0.3-0.3-0.7-0.5-0.3-0.1-0.8-0.1-0.4 0-0.8 0.1-0.3 0.2-0.6 0.5-0.3 0.3-0.5 0.7-0.1 0.4-0.1 0.8 0 0.4 0.1 0.8 0.2 0.4 0.5 0.6 0.3 0.3 0.6 0.5 0.4 0.2 0.8 0.2 0.5 0 0.8-0.2 0.4-0.2 0.7-0.5 0.3-0.2 0.5-0.6 0.1-0.4 0.1-0.8zm-21.3 36.2q0-0.4-0.1-0.8-0.2-0.4-0.5-0.7-0.3-0.3-0.7-0.5-0.4-0.2-0.8-0.2-0.4 0-0.8 0.2-0.4 0.2-0.7 0.5-0.3 0.3-0.5 0.7-0.2 0.4-0.2 0.8 0 0.4 0.2 0.8 0.2 0.4 0.5 0.7 0.3 0.3 0.7 0.5 0.4 0.1 0.8 0.1 0.4 0 0.8-0.1 0.4-0.2 0.7-0.5 0.3-0.3 0.5-0.7 0.1-0.4 0.1-0.8z"/>
	<path id="Layer" class="s2" d="m122.7 29.4c-1-0.7-1.2-1.9-0.6-2.8 0.6-0.9 1.9-1 2.9-0.3 1 0.7 1.2 2 0.6 2.8-0.6 0.9-1.9 1-2.9 0.3z"/>
	<path id="Layer" class="s2" d="m152.6 30c-1.1 0-2.1-1-2.1-2.1 0-1.2 1-2.1 2.1-2.1 1.2 0 2.1 0.9 2.1 2.1 0 1.1-0.9 2.1-2.1 2.1z"/>
	<path id="Layer" fill-rule="evenodd" class="s1" d="m137 78.8h21.2q0.1-0.1 0.3-0.1 0.1 0 0.2-0.1 0.2 0 0.3-0.1 0.1-0.1 0.2-0.2l26.8-26.4q0-0.1 0.1-0.2 0 0 0.1-0.1 0-0.1 0-0.2 0-0.1 0-0.2v-10.2q0-0.1 0-0.2 0-0.1 0-0.2-0.1-0.1-0.2-0.2 0-0.1-0.1-0.2-4.8-3.9-1.5-8.5c3.7-5.2 11.5-0.6 9.8 5.7q-0.1 0.5-0.5 0.9l-2.1 2q-0.1 0.1-0.2 0.1 0 0.1-0.1 0.2 0 0.1 0 0.2 0 0.1-0.1 0.2v12.5q0.1 0.1 0 0.2 0 0.1 0 0.2-0.1 0.1-0.1 0.2-0.1 0.1-0.2 0.1l-29.7 29.5q-0.4 0.3-1 0.3-15.8-0.6-22.7-0.2c-1.7 0.1-3.1 3.2-5.7 3.3-11.2 0.3-5.5-18.5 4.5-8.6q0.3 0.3 0.7 0.3zm54-43.4q0-0.5-0.2-0.8-0.1-0.4-0.4-0.7-0.3-0.3-0.7-0.5-0.4-0.1-0.8-0.1-0.4 0-0.8 0.1-0.4 0.2-0.7 0.5-0.3 0.3-0.5 0.7-0.1 0.3-0.1 0.8 0 0.4 0.1 0.8 0.2 0.3 0.5 0.6 0.3 0.3 0.7 0.5 0.4 0.1 0.8 0.2 0.4-0.1 0.8-0.2 0.4-0.2 0.7-0.5 0.3-0.3 0.4-0.6 0.2-0.4 0.2-0.8zm-57.6 45.9q0-0.4-0.1-0.8-0.2-0.4-0.5-0.7-0.3-0.3-0.7-0.4-0.4-0.2-0.8-0.2-0.4 0-0.8 0.2-0.4 0.1-0.7 0.4-0.3 0.3-0.4 0.7-0.2 0.4-0.2 0.8 0 0.5 0.2 0.8 0.1 0.4 0.4 0.7 0.3 0.3 0.7 0.5 0.4 0.1 0.8 0.2 0.4-0.1 0.8-0.2 0.4-0.2 0.7-0.5 0.3-0.3 0.5-0.7 0.1-0.3 0.1-0.8z"/>
	<path id="Layer" fill-rule="evenodd" class="s1" d="m186.2 203.7c2.3 1.8 3.2 4.7 1.9 7.4-3.9 8.3-16.4-1-8-7.3q0.1 0 0.2-0.1 0-0.1 0.1-0.2 0-0.1 0.1-0.2 0-0.2 0-0.3v-67.5q0-0.6-0.4-1.1l-27.1-27q-0.1-0.2-0.2-0.2-0.2-0.1-0.3-0.2-0.1 0-0.3 0-0.1-0.1-0.2-0.1l-32.9 0.1q-0.1 0-0.1 0-0.1 0-0.2 0 0-0.1-0.1-0.1-0.1 0-0.1-0.1l-19-18.3q-0.1-0.1-0.2-0.2 0 0-0.1-0.1 0-0.2 0-0.3 0-0.1 0-0.2v-46.7q-0.1-0.1-0.1-0.2 0-0.2-0.1-0.3 0-0.1-0.1-0.1-0.1-0.1-0.2-0.2c-6.7-4.5 0.3-14.2 6.5-9.2q2.8 2.2 1.7 6.5-0.1 0.5-0.4 0.8l-1.9 1.9q-0.4 0.4-0.4 0.9l0.3 44.6q0 0.4 0.3 0.7l15.3 14.9q0.1 0.1 0.2 0.2 0.1 0.1 0.2 0.1 0.2 0.1 0.3 0.1 0.2 0.1 0.3 0.1h33q0.5 0 0.9 0.3l30.1 30.3q0.4 0.4 0.4 0.9l-0.1 68.9q0 0.9 0.7 1.5zm-82.3-168.3q0-0.5-0.2-0.8-0.1-0.4-0.4-0.7-0.3-0.3-0.7-0.5-0.4-0.1-0.8-0.1-0.4 0-0.8 0.1-0.4 0.2-0.7 0.5-0.3 0.3-0.4 0.7-0.2 0.3-0.2 0.8 0 0.4 0.2 0.7 0.1 0.4 0.4 0.7 0.3 0.3 0.7 0.5 0.4 0.1 0.8 0.1 0.4 0 0.8-0.1 0.4-0.2 0.7-0.5 0.3-0.3 0.4-0.7 0.2-0.3 0.2-0.7zm81.3 173.1q0-0.4-0.2-0.8-0.1-0.4-0.4-0.7-0.3-0.2-0.7-0.4-0.4-0.2-0.8-0.2-0.4 0-0.8 0.2-0.4 0.2-0.7 0.4-0.3 0.3-0.5 0.7-0.1 0.4-0.1 0.8 0 0.4 0.1 0.8 0.2 0.4 0.5 0.7 0.3 0.3 0.7 0.5 0.4 0.1 0.8 0.1 0.4 0 0.8-0.1 0.4-0.2 0.7-0.5 0.3-0.3 0.4-0.7 0.2-0.4 0.2-0.8z"/>
	<path id="Layer" class="s2" d="m101.8 37.4c-1.1 0-2.1-0.9-2.1-2 0-1.2 1-2.1 2.1-2.1 1.2 0 2.1 0.9 2.1 2.1 0 1.1-0.9 2-2.1 2z"/>
	<path id="Layer" class="s2" d="m188.9 37.5c-1.2 0-2.1-1-2.1-2.1 0-1.2 0.9-2.1 2.1-2.1 1.1 0 2.1 0.9 2.1 2.1 0 1.1-1 2.1-2.1 2.1z"/>
	<path id="Layer" class="s2" d="m138.6 44.7c-1.2 0-2.1-0.9-2.1-2.1 0-1.1 0.9-2.1 2.1-2.1 1.2 0 2.1 1 2.1 2.1 0 1.2-0.9 2.1-2.1 2.1z"/>
	<path id="Layer" fill-rule="evenodd" class="s1" d="m203.1 133.7c1 1.2 2 1.4 2.5 3.2 1.8 7-6.6 10.6-9.9 4.9q-2.6-4.3 1.6-7.7 0.5-0.4 0.5-1v-46.1q0-0.3 0-0.6 0.1-0.2 0.2-0.5 0.1-0.2 0.2-0.5 0.2-0.2 0.4-0.4l10.4-10.3q0.5-0.4 0.5-1v-20.9q0-0.1 0-0.3 0-0.1-0.1-0.2 0-0.1-0.1-0.2-0.1-0.1-0.2-0.2c-9-7.6 5.2-15.9 8.2-6.9q1.3 3.9-2.4 6.6-0.1 0.1-0.2 0.2 0 0.1-0.1 0.2 0 0.1-0.1 0.2 0 0.1 0 0.2v23.7q0 0.2 0 0.3 0 0.1-0.1 0.2 0 0.1-0.1 0.2-0.1 0.1-0.1 0.2l-11 10.9q0 0.1-0.1 0.1 0 0.1 0 0.1 0 0.1 0 0.1-0.1 0.1-0.1 0.1l-0.2 44.4q0 0.6 0.3 1zm10.9-86.8q0-0.4-0.2-0.8-0.2-0.4-0.4-0.7-0.3-0.3-0.7-0.4-0.4-0.2-0.8-0.2-0.4 0-0.8 0.2-0.4 0.1-0.7 0.4-0.3 0.3-0.4 0.7-0.2 0.4-0.2 0.8 0 0.4 0.2 0.8 0.1 0.3 0.4 0.6 0.3 0.3 0.7 0.5 0.4 0.1 0.8 0.1 0.4 0 0.8-0.1 0.4-0.2 0.7-0.5 0.2-0.3 0.4-0.6 0.2-0.4 0.2-0.8zm-11.6 91.9q0-0.4-0.1-0.8-0.2-0.3-0.5-0.6-0.3-0.3-0.6-0.5-0.4-0.1-0.8-0.1-0.4 0-0.8 0.1-0.4 0.2-0.7 0.5-0.3 0.3-0.4 0.6-0.2 0.4-0.2 0.8 0 0.4 0.2 0.8 0.1 0.4 0.4 0.7 0.3 0.3 0.7 0.4 0.4 0.2 0.8 0.2 0.4 0 0.8-0.2 0.3-0.1 0.6-0.4 0.3-0.3 0.5-0.7 0.1-0.4 0.1-0.8z"/>
	<path id="Layer" class="s2" d="m211.9 48.9c-1.2 0-2.1-0.9-2.1-2 0-1.2 0.9-2.1 2.1-2.1 1.1 0 2.1 0.9 2.1 2.1 0 1.1-1 2-2.1 2z"/>
	<path id="Layer" fill-rule="evenodd" class="s1" d="m82.5 86.4c4.6 4 9 9.1 13.3 13.6q0.9 0.9 3.2 0.4 0.4-0.1 0.8 0.1c11.3 4.8-2.6 17.4-6.6 7.9-0.5-1.2-0.5-2.8-0.7-4.2q-0.1-0.4-0.5-0.8l-15-15q0-0.1-0.1-0.1 0-0.1-0.1-0.2 0-0.1 0-0.2 0-0.1-0.1-0.2v-12.5q0-0.6-0.3-1l-8.1-8q-0.1-0.1-0.2-0.1-0.1-0.1-0.2-0.1-0.1-0.1-0.2-0.1-0.1 0-0.3 0-4.3 0.5-6.1-2.5c-5.2-8.4 11.5-13.5 10.4-1.8q0 0.2 0 0.3 0 0.2 0.1 0.3 0 0.1 0.1 0.2 0.1 0.2 0.2 0.2l9.3 9.5q0.4 0.3 0.4 0.8l0.3 12.8q0 0.4 0.3 0.7zm-14.1-26q0-0.4-0.1-0.8-0.2-0.4-0.5-0.7-0.3-0.3-0.7-0.4-0.3-0.2-0.8-0.2-0.4 0-0.8 0.2-0.4 0.1-0.7 0.4-0.2 0.3-0.4 0.7-0.2 0.4-0.2 0.8 0 0.4 0.2 0.8 0.2 0.4 0.4 0.7 0.3 0.3 0.7 0.4 0.4 0.2 0.8 0.2 0.5 0 0.8-0.2 0.4-0.1 0.7-0.4 0.3-0.3 0.5-0.7 0.1-0.4 0.1-0.8zm32 45.6q0-0.4-0.1-0.8-0.2-0.4-0.5-0.7-0.3-0.3-0.7-0.4-0.3-0.2-0.7-0.2-0.5 0-0.8 0.2-0.4 0.1-0.7 0.4-0.3 0.3-0.5 0.7-0.1 0.4-0.1 0.8 0 0.4 0.1 0.8 0.2 0.4 0.5 0.7 0.3 0.2 0.7 0.4 0.3 0.2 0.7 0.2 0.5 0 0.8-0.2 0.4-0.2 0.7-0.4 0.3-0.3 0.5-0.7 0.1-0.4 0.1-0.8z"/>
	<path id="Layer" class="s2" d="m66.2 62.5c-1.1 0-2.1-0.9-2.1-2.1 0-1.2 1-2.1 2.1-2.1 1.2 0 2.1 0.9 2.1 2.1 0 1.2-0.9 2.1-2.1 2.1z"/>
	<path id="Layer" fill-rule="evenodd" class="s1" d="m239.1 60.5q3.6 4.4-1.3 8.7-0.3 0.3-0.3 0.8v6.1q0 0.2 0 0.3-0.1 0.1-0.1 0.2 0 0.1-0.1 0.2-0.1 0.1-0.2 0.2l-9.5 9.5q-0.1 0.1-0.2 0.2 0 0.1-0.1 0.3 0 0.1 0 0.2 0 0.1 0 0.2 0.5 3.8-1.6 5.5c-8.5 7.2-15.1-10.7-2.4-9.6q0.1 0 0.2 0 0.1-0.1 0.3-0.1 0.1 0 0.2-0.1 0.1-0.1 0.2-0.2l7.6-7.6q0.4-0.4 0.5-1l0.3-4.2q0-0.6-0.5-0.9c-7.5-5.4 1.6-15.1 7-8.7zm-2.1 3.7q0-0.4-0.2-0.8-0.1-0.3-0.4-0.6-0.3-0.3-0.7-0.5-0.4-0.1-0.8-0.1-0.4 0-0.7 0.1-0.4 0.2-0.7 0.5-0.3 0.3-0.5 0.6-0.1 0.4-0.1 0.8 0 0.4 0.1 0.8 0.2 0.4 0.5 0.7 0.3 0.3 0.7 0.4 0.3 0.2 0.7 0.2 0.4 0 0.8-0.2 0.4-0.1 0.7-0.4 0.3-0.3 0.4-0.7 0.2-0.4 0.2-0.8zm-13.1 24.5q0-0.4-0.1-0.8-0.2-0.4-0.5-0.7-0.3-0.3-0.7-0.4-0.4-0.2-0.8-0.2-0.4 0-0.8 0.2-0.4 0.1-0.7 0.4-0.3 0.3-0.4 0.7-0.2 0.4-0.2 0.8 0 0.4 0.2 0.8 0.1 0.4 0.4 0.7 0.3 0.3 0.7 0.5 0.4 0.1 0.8 0.1 0.4 0 0.8-0.1 0.4-0.2 0.7-0.5 0.3-0.3 0.5-0.7 0.1-0.4 0.1-0.8z"/>
	<path id="Layer" class="s2" d="m131.3 66.2c-1.2 0-2.2-0.9-2.2-2.1 0-1.2 1-2.2 2.2-2.2 1.2 0 2.1 1 2.1 2.2 0 1.2-0.9 2.1-2.1 2.1z"/>
	<path id="Layer" class="s2" d="m234.9 66.3c-1.1 0-2-0.9-2-2.1 0-1.1 0.9-2 2-2 1.2 0 2.1 0.9 2.1 2 0 1.2-0.9 2.1-2.1 2.1z"/>
	<path id="Layer" fill-rule="evenodd" class="s1" d="m183.9 100.5c4.7-0.8 7.9 4.1 5.9 8.1-2.9 5.6-12 3-10.6-3.9q0.1-0.5-0.3-0.9l-3.8-3.8q-0.4-0.4-0.4-1v-12.3q0-0.6 0.4-1l3.6-3.6q0.4-0.3 0.4-0.9c-0.9-9.7 11.9-9 11.3-1-0.2 3.4-2.7 4.5-6 5-6.3 0.9-6.5 12.8-1.3 15.2q0.1 0.1 0.2 0.1 0.1 0 0.2 0.1 0.1 0 0.2 0 0.1 0 0.2-0.1zm2.9-20.8q0-0.4-0.2-0.8-0.1-0.4-0.4-0.6-0.3-0.3-0.7-0.5-0.4-0.1-0.8-0.1-0.4 0-0.8 0.1-0.4 0.2-0.6 0.5-0.3 0.2-0.5 0.6-0.1 0.4-0.2 0.8 0.1 0.4 0.2 0.8 0.2 0.4 0.5 0.7 0.2 0.3 0.6 0.4 0.4 0.2 0.8 0.2 0.4 0 0.8-0.2 0.4-0.1 0.7-0.4 0.3-0.3 0.4-0.7 0.2-0.4 0.2-0.8zm0 26.3q0-0.4-0.2-0.8-0.1-0.3-0.4-0.6-0.3-0.3-0.7-0.5-0.4-0.2-0.8-0.2-0.4 0-0.8 0.2-0.4 0.2-0.7 0.5-0.3 0.3-0.4 0.6-0.2 0.4-0.2 0.8 0 0.5 0.2 0.8 0.1 0.4 0.4 0.7 0.3 0.3 0.7 0.5 0.4 0.1 0.8 0.1 0.4 0 0.8-0.1 0.4-0.2 0.7-0.5 0.3-0.3 0.4-0.7 0.2-0.3 0.2-0.8z"/>
	<path id="Layer" class="s2" d="m184.7 81.8c-1.1 0-2-1-2-2.1 0-1.1 0.9-2.1 2-2.1 1.1 0 2.1 1 2.1 2.1 0 1.1-1 2.1-2.1 2.1z"/>
	<path id="Layer" fill-rule="evenodd" class="s1" d="m52.3 90q-0.1-0.1-0.2-0.1-0.2-0.1-0.3-0.2-0.2 0-0.3 0-0.2-0.1-0.3 0-5.5 0.8-6.6-4c-2.1-8.8 12.4-9.8 11 0.2q-0.1 0.5 0.2 0.8l34.5 34.5q0.2 0.2 0.4 0.3 0.3 0.2 0.5 0.3 0.3 0.1 0.5 0.1 0.3 0.1 0.6 0.1h53.4q0.4 0 0.7 0.3l22.4 22.4q0.1 0.1 0.2 0.2 0.1 0.1 0.1 0.3 0.1 0.1 0.1 0.3 0 0.1 0.1 0.3v39.2q0 0.5 0.4 0.9c4.4 3.2 2.8 10.4-2.6 10.5-5 0.1-7.5-4.6-5.2-9.1q0.3-0.4 0.7-0.6c1-0.6 1.7-1.2 1.7-2.4q-0.1-17.9-0.1-35.5 0-0.3-0.1-0.6 0-0.3-0.2-0.6-0.1-0.2-0.2-0.5-0.2-0.2-0.4-0.4l-19-19q-0.3-0.4-0.9-0.4-25.1-0.3-50.2-0.2c-3.9 0-3.4 0.5-6.1-2.2q-17.6-17.2-34.8-34.9zm-0.2-5.7q0-0.4-0.1-0.7-0.2-0.4-0.5-0.7-0.3-0.3-0.6-0.5-0.4-0.1-0.8-0.1-0.5 0-0.8 0.1-0.4 0.2-0.7 0.5-0.3 0.3-0.5 0.7-0.1 0.3-0.1 0.8 0 0.4 0.1 0.7 0.2 0.4 0.5 0.7 0.3 0.3 0.7 0.5 0.3 0.1 0.8 0.1 0.4 0 0.8-0.1 0.3-0.2 0.6-0.5 0.3-0.3 0.5-0.7 0.1-0.3 0.1-0.8zm116.7 106.4q0-0.5-0.2-0.9-0.2-0.3-0.5-0.6-0.3-0.3-0.6-0.5-0.4-0.2-0.9-0.2-0.4 0-0.8 0.2-0.4 0.2-0.7 0.5-0.3 0.3-0.4 0.6-0.2 0.4-0.2 0.9 0 0.4 0.2 0.8 0.1 0.4 0.4 0.7 0.3 0.3 0.7 0.4 0.4 0.2 0.8 0.2 0.5 0 0.9-0.2 0.3-0.1 0.6-0.4 0.3-0.3 0.5-0.7 0.2-0.4 0.2-0.8z"/>
	<path id="Layer" class="s2" d="m131.3 83.4c-1.2 0-2.1-0.9-2.1-2.1 0-1.1 0.9-2.1 2.1-2.1 1.2 0 2.1 1 2.1 2.1 0 1.2-0.9 2.1-2.1 2.1z"/>
	<path id="Layer" fill-rule="evenodd" class="s1" d="m251.8 81.2c3.7 3 2 8.1-1.9 9.5-1 0.4-2 0.2-3.3 0.3q-0.5 0-0.9 0.4l-24.8 24.8q-0.1 0.1-0.1 0.2-0.1 0.1-0.2 0.3 0 0.1-0.1 0.3 0 0.1 0 0.2v33.5q0 0.4-0.3 0.7l-17.5 17.5q-0.5 0.5-0.5 1.3l-0.2 49.5q0 0.1 0 0.2 0 0.1 0.1 0.1 0 0.1 0.1 0.2 0 0.1 0.1 0.1 4 2.9 2.8 6.7c-3 9.2-17.7 0.4-8.5-6.7q0.1-0.1 0.2-0.2 0.1-0.1 0.1-0.2 0.1-0.1 0.1-0.2 0-0.1 0-0.2v-51.5q0-0.7 0.4-1.1l17-16.9q0.3-0.2 0.5-0.5 0.2-0.3 0.3-0.7 0.2-0.3 0.2-0.7 0.1-0.3 0.1-0.7v-32.1q0-0.2 0-0.4 0.1-0.2 0.2-0.4 0-0.2 0.1-0.3 0.1-0.2 0.3-0.3l26.1-25.9q0.1-0.1 0.2-0.3 0.1-0.1 0.1-0.2 0.1-0.2 0.1-0.3 0-0.2-0.1-0.3c-1-5.6 4.9-9.3 9.3-5.7zm-1.6 4.2q0-0.4-0.2-0.7-0.1-0.4-0.4-0.7-0.3-0.3-0.7-0.5-0.4-0.1-0.8-0.1-0.4 0-0.8 0.1-0.3 0.2-0.6 0.5-0.3 0.3-0.5 0.7-0.1 0.3-0.1 0.7 0 0.5 0.1 0.8 0.2 0.4 0.5 0.7 0.3 0.3 0.6 0.5 0.4 0.1 0.8 0.1 0.4 0 0.8-0.1 0.4-0.2 0.7-0.5 0.3-0.3 0.4-0.7 0.2-0.3 0.2-0.8zm-48.6 139.8q-0.1-0.4-0.2-0.8-0.2-0.4-0.5-0.7-0.2-0.3-0.6-0.4-0.4-0.2-0.8-0.2-0.4 0-0.8 0.2-0.4 0.1-0.7 0.4-0.3 0.3-0.4 0.7-0.2 0.4-0.2 0.8 0 0.4 0.2 0.8 0.1 0.3 0.4 0.6 0.3 0.3 0.7 0.5 0.4 0.1 0.8 0.1 0.4 0 0.8-0.1 0.4-0.2 0.6-0.5 0.3-0.3 0.5-0.6 0.1-0.4 0.1-0.8z"/>
	<path id="Layer" class="s2" d="m50.1 86.4c-1.2 0-2.1-0.9-2.1-2.1 0-1.1 0.9-2 2.1-2 1.1 0 2 0.9 2 2 0 1.2-0.9 2.1-2 2.1z"/>
	<path id="Layer" class="s2" d="m248.1 87.5c-1.1 0-2-0.9-2-2 0-1.2 0.9-2.1 2-2.1 1.2 0 2.1 0.9 2.1 2.1 0 1.1-0.9 2-2.1 2z"/>
	<path id="Layer" class="s2" d="m221.8 90.8c-1.2 0-2.1-0.9-2.1-2.1 0-1.2 0.9-2.1 2.1-2.1 1.2 0 2.1 0.9 2.1 2.1 0 1.2-0.9 2.1-2.1 2.1z"/>
	<path id="Layer" fill-rule="evenodd" class="s1" d="m49.8 111.7c10 10 20.2 19.8 30.1 29.9q0.1 0.1 0.2 0.1 0.1 0.1 0.2 0.1 0.1 0.1 0.2 0.1 0.1 0 0.2 0l44.6 0.4q0.2 0 0.3 0 0.1-0.1 0.2-0.1 0.1-0.1 0.2-0.2 0.1 0 0.2-0.1c4.4-6.4 13.5-1 10 5.5-2.3 4.1-7.1 3.6-9.9 0.2q-0.1-0.1-0.2-0.1-0.1-0.1-0.2-0.2-0.1 0-0.2 0-0.1-0.1-0.2-0.1h-46.7q-0.4 0-0.7-0.2l-32.9-33q-0.4-0.3-0.9-0.2-5 1.2-6.5-3.4c-2.3-7.3 7.6-10.9 10.9-3.6q0 0.1 0 0.3 0.1 0.1 0.1 0.2 0 0.1 0 0.2 0 0.2 0 0.3c-0.3 1.6-0.2 2.7 1 3.9zm-4.5-3.2q-0.1-0.4-0.2-0.8-0.2-0.4-0.5-0.7-0.3-0.3-0.6-0.4-0.4-0.2-0.8-0.2-0.5 0-0.8 0.2-0.4 0.1-0.7 0.4-0.3 0.3-0.5 0.7-0.1 0.4-0.1 0.8 0 0.4 0.1 0.8 0.2 0.4 0.5 0.7 0.3 0.3 0.7 0.5 0.3 0.1 0.8 0.1 0.4 0 0.8-0.1 0.3-0.2 0.6-0.5 0.3-0.3 0.5-0.7 0.1-0.4 0.2-0.8zm87.9 36.2q0-0.4-0.2-0.8-0.1-0.4-0.4-0.7-0.3-0.3-0.7-0.4-0.3-0.2-0.7-0.2-0.4 0-0.8 0.2-0.4 0.1-0.7 0.4-0.2 0.3-0.4 0.7-0.1 0.4-0.1 0.8 0 0.3 0.1 0.7 0.2 0.4 0.4 0.7 0.3 0.3 0.7 0.4 0.4 0.2 0.8 0.2 0.4 0 0.7-0.2 0.4-0.1 0.7-0.4 0.3-0.3 0.4-0.7 0.2-0.4 0.2-0.7z"/>
	<path id="Layer" fill-rule="evenodd" class="s1" d="m234.5 150c-4.9-1.9-4.8-7.2-1.1-10.5q0.1-0.1 0.1-0.1 0.1-0.1 0.2-0.2 0-0.1 0-0.2 0-0.1 0.1-0.3v-7.5q-0.1-0.1 0-0.2 0-0.1 0-0.3 0.1-0.1 0.2-0.2 0-0.1 0.1-0.2 9.5-9.8 19.3-19.1 0.8-0.7 0.7-2.5c-0.3-6.5 7.5-7.9 10.6-2.9 2.7 4.5-1.9 8.9-6.5 8.3q-0.5-0.1-0.9 0.2-8.4 8.4-16.7 16.8c-2.8 2.8-1.4 4.2-1.6 7.7q0 0.1 0 0.3 0 0.1 0.1 0.2 0 0.1 0.1 0.2 0 0.1 0.1 0.2c1.2 1.1 2.4 2.1 2.6 3.8 0.5 4-3.2 8.1-7.4 6.5zm27.1-41.5q0-0.4-0.2-0.8-0.1-0.3-0.4-0.6-0.3-0.3-0.7-0.5-0.4-0.1-0.8-0.1-0.4 0-0.7 0.1-0.4 0.2-0.7 0.5-0.3 0.3-0.5 0.6-0.1 0.4-0.1 0.8 0 0.4 0.1 0.8 0.2 0.4 0.5 0.7 0.3 0.3 0.7 0.4 0.3 0.2 0.7 0.2 0.4 0 0.8-0.2 0.4-0.1 0.7-0.4 0.3-0.3 0.4-0.7 0.2-0.4 0.2-0.8zm-23.2 36.1q0-0.4-0.2-0.7-0.1-0.4-0.4-0.7-0.3-0.3-0.7-0.5-0.4-0.1-0.8-0.1-0.4 0-0.8 0.1-0.3 0.2-0.6 0.5-0.3 0.3-0.5 0.7-0.1 0.3-0.1 0.7 0 0.4 0.1 0.8 0.2 0.4 0.5 0.7 0.3 0.3 0.6 0.4 0.4 0.2 0.8 0.2 0.4 0 0.8-0.2 0.4-0.1 0.7-0.4 0.3-0.3 0.4-0.7 0.2-0.4 0.2-0.8z"/>
	<path id="Layer" class="s2" d="m98.3 108.1c-1.2 0-2.1-1-2.1-2.1 0-1.2 0.9-2.1 2.1-2.1 1.1 0 2 0.9 2 2.1 0 1.1-0.9 2.1-2 2.1z"/>
	<path id="Layer" class="s2" d="m184.7 108.1c-1.2 0-2.1-0.9-2.1-2.1 0-1.1 0.9-2.1 2.1-2.1 1.2 0 2.1 1 2.1 2.1 0 1.2-0.9 2.1-2.1 2.1z"/>
	<path id="Layer" class="s2" d="m43.2 110.6c-1.2 0-2.1-0.9-2.1-2.1 0-1.1 0.9-2.1 2.1-2.1 1.1 0 2 1 2 2.1 0 1.2-0.9 2.1-2 2.1z"/>
	<path id="Layer" class="s2" d="m259.5 110.6c-1.1 0-2-0.9-2-2.1 0-1.1 0.9-2 2-2 1.2 0 2.1 0.9 2.1 2 0 1.2-0.9 2.1-2.1 2.1z"/>
	<path id="Layer" fill-rule="evenodd" class="s1" d="m255.5 158.7v-20.4q0-0.1 0-0.2 0-0.1 0.1-0.2 0-0.1 0.1-0.2 0 0 0.1-0.1l3.8-3.8q0.1-0.1 0.1-0.2 0.1-0.1 0.1-0.2 0.1-0.2 0.1-0.3 0-0.1 0-0.3c-1.7-10.5 14.5-8.1 10.7 1q-1.6 4-6.6 3.5-0.5-0.1-0.9 0.2-2.6 1.9-2.6 3.7 0 11.4 0 22.8 0 0.5-0.5 0.5-10.9 0-21.6 0c-2.8 0-3.4 1.2-5.2 3q-6.3 6-12.3 12.3-0.3 0.4-0.3 0.9-0.3 22.2-0.4 44.4c0 3.8-0.5 6.2 2.7 9q0.4 0.3 0.5 0.8c1.7 13.4-18.8 6.5-8.2-3.4q0.1-0.1 0.1-0.2 0.1-0.1 0.2-0.3 0-0.1 0-0.2 0.1-0.2 0.1-0.3l-0.4-52.1q0-0.1 0-0.2 0.1-0.1 0.1-0.2 0-0.1 0.1-0.2 0-0.1 0.1-0.1l17.9-18q0.5-0.4 1.1-0.4l20.5-0.1q0.5 0 0.5-0.5zm12-27.2q0-0.4-0.1-0.8-0.2-0.3-0.5-0.6-0.3-0.3-0.7-0.5-0.4-0.1-0.8-0.2-0.4 0.1-0.8 0.2-0.4 0.2-0.7 0.5-0.3 0.3-0.4 0.6-0.2 0.4-0.2 0.8 0 0.5 0.2 0.8 0.1 0.4 0.4 0.7 0.3 0.3 0.7 0.5 0.4 0.1 0.8 0.1 0.4 0 0.8-0.1 0.4-0.2 0.7-0.5 0.3-0.3 0.5-0.7 0.1-0.3 0.1-0.8zm-47.6 105.2q0-0.4-0.1-0.8-0.2-0.3-0.5-0.6-0.3-0.3-0.6-0.5-0.4-0.1-0.8-0.1-0.4 0-0.8 0.1-0.4 0.2-0.7 0.5-0.3 0.3-0.4 0.6-0.2 0.4-0.2 0.8 0 0.4 0.2 0.8 0.1 0.4 0.4 0.7 0.3 0.3 0.7 0.4 0.4 0.2 0.8 0.2 0.4 0 0.8-0.2 0.3-0.1 0.6-0.4 0.3-0.3 0.5-0.7 0.1-0.4 0.1-0.8z"/>
	<path id="Layer" fill-rule="evenodd" class="s1" d="m27.6 133.5c0-11.1 18.5-4.8 8.5 4.9q-0.1 0.1-0.2 0.2 0 0.1-0.1 0.2 0 0.1 0 0.2 0 0.1-0.1 0.2v15.4q0.1 0.2 0.1 0.3 0 0.1 0 0.2 0.1 0.1 0.2 0.2 0 0.1 0.1 0.2l13.8 13.8q0.1 0.1 0.2 0.1 0.1 0.1 0.2 0.1 0.1 0.1 0.2 0.1 0.2 0 0.3 0c4.6-0.7 9 3.7 6.7 7.9-3.4 6.2-11.7 3.1-10.9-3.9q0-0.5-0.4-0.9l-15-15.2q-0.5-0.4-0.5-1v-17.3q0-0.6-0.4-1c-1.5-1.4-2.6-2.5-2.7-4.7zm7.8-0.2q-0.1-0.4-0.2-0.8-0.2-0.4-0.5-0.7-0.2-0.3-0.6-0.4-0.4-0.2-0.8-0.2-0.4 0-0.8 0.2-0.4 0.1-0.6 0.4-0.3 0.3-0.5 0.7-0.1 0.4-0.2 0.8 0.1 0.4 0.2 0.8 0.2 0.3 0.5 0.6 0.2 0.3 0.6 0.5 0.4 0.1 0.8 0.1 0.4 0 0.8-0.1 0.4-0.2 0.6-0.5 0.3-0.3 0.5-0.6 0.1-0.4 0.1-0.8zm19 41.8q0-0.4-0.2-0.8-0.2-0.3-0.4-0.6-0.3-0.3-0.7-0.5-0.4-0.2-0.8-0.2-0.4 0-0.8 0.2-0.4 0.2-0.7 0.5-0.3 0.3-0.5 0.6-0.1 0.4-0.1 0.8 0 0.5 0.1 0.8 0.2 0.4 0.5 0.7 0.3 0.3 0.7 0.5 0.4 0.1 0.8 0.1 0.4 0 0.8-0.1 0.4-0.2 0.7-0.5 0.2-0.3 0.4-0.7 0.2-0.3 0.2-0.8z"/>
	<path id="Layer" class="s2" d="m265.4 133.6c-1.1 0-2.1-0.9-2.1-2.1 0-1.1 1-2.1 2.1-2.1 1.2 0 2.1 1 2.1 2.1 0 1.2-0.9 2.1-2.1 2.1z"/>
	<path id="Layer" class="s2" d="m33.3 135.3c-1.1 0-2-0.9-2-2 0-1.2 0.9-2.1 2-2.1 1.1 0 2 0.9 2 2.1 0 1.1-0.9 2-2 2z"/>
	<path id="Layer" class="s2" d="m200.4 140.9c-1.2 0-2.1-0.9-2.1-2.1 0-1.1 0.9-2 2.1-2 1.1 0 2 0.9 2 2 0 1.2-0.9 2.1-2 2.1z"/>
	<path id="Layer" class="s2" d="m236.3 146.7c-1.1 0-2-0.9-2-2.1 0-1.1 0.9-2 2-2 1.2 0 2.1 0.9 2.1 2 0 1.2-0.9 2.1-2.1 2.1z"/>
	<path id="Layer" class="s2" d="m131.2 146.7c-1.2 0-2-0.9-2-2 0-1.2 0.8-2.1 2-2.1 1.1 0 2 0.9 2 2.1 0 1.1-0.9 2-2 2z"/>
	<path id="Layer" fill-rule="evenodd" class="s1" d="m108.5 198.3c11.3-1 7.2 15.6-1.8 10.3q-3-1.8-2.4-6.1 0.1-0.5-0.3-0.8l-46.9-46.9q-0.1-0.1-0.2-0.2-0.1-0.1-0.2-0.1-0.1 0-0.2 0-0.1-0.1-0.2 0c-9.8 1.1-9.3-12.8-0.7-11.2q5 0.9 4.7 6.9 0 0.5 0.4 0.9l46.9 46.8q0.1 0.1 0.2 0.2 0.1 0.1 0.2 0.1 0.1 0 0.2 0.1 0.1 0 0.3 0zm-51.7-49.5q0-0.4-0.2-0.8-0.2-0.4-0.5-0.6-0.3-0.3-0.6-0.5-0.4-0.2-0.9-0.2-0.4 0-0.8 0.2-0.4 0.2-0.7 0.5-0.3 0.2-0.4 0.6-0.2 0.4-0.2 0.8 0 0.5 0.2 0.9 0.1 0.4 0.4 0.6 0.3 0.3 0.7 0.5 0.4 0.2 0.8 0.2 0.5 0 0.9-0.2 0.3-0.2 0.6-0.5 0.3-0.2 0.5-0.6 0.2-0.4 0.2-0.9zm55 55.1q0-0.4-0.1-0.8-0.2-0.4-0.5-0.6-0.3-0.3-0.6-0.5-0.4-0.1-0.8-0.1-0.4 0-0.8 0.1-0.3 0.2-0.6 0.5-0.3 0.2-0.5 0.6-0.1 0.4-0.1 0.8 0 0.4 0.1 0.8 0.2 0.3 0.5 0.6 0.3 0.3 0.6 0.5 0.4 0.1 0.8 0.1 0.4 0 0.8-0.1 0.3-0.2 0.6-0.5 0.3-0.3 0.5-0.6 0.1-0.4 0.1-0.8z"/>
	<path id="Layer" class="s2" d="m54.6 151c-1.1 0-2.1-1-2.1-2.2 0-1.1 1-2.1 2.1-2.1 1.2 0 2.2 1 2.2 2.1 0 1.2-1 2.2-2.2 2.2z"/>
	<path id="Layer" fill-rule="evenodd" class="s1" d="m102.5 159.4h13.5q0.5 0 0.5 0.6v13.1q0 0.2 0 0.4 0.1 0.2 0.2 0.4 0.1 0.2 0.2 0.4 0.1 0.1 0.3 0.3c6.2 5.1-1.1 13.7-6.7 9-3.2-2.7-3-6.9 0.6-9.3q0.1-0.1 0.2-0.2 0 0 0.1-0.2 0-0.1 0.1-0.2 0-0.1 0-0.2v-8q0-0.2-0.1-0.4-0.1-0.2-0.2-0.3-0.1-0.1-0.3-0.2-0.2-0.1-0.4-0.1h-7.8q-0.1 0-0.3 0-0.1 0.1-0.3 0.1-0.1 0.1-0.2 0.2-0.1 0.1-0.2 0.2-3.9 4.2-8 1.6c-7.3-4.8 1.8-15.2 7.7-7.7q0.1 0.1 0.3 0.2 0.1 0.1 0.2 0.2 0.2 0.1 0.3 0.1 0.2 0 0.3 0zm-3.8 2.5q0-0.4-0.2-0.7-0.1-0.4-0.4-0.7-0.3-0.3-0.6-0.4-0.4-0.2-0.8-0.2-0.4 0-0.8 0.2-0.3 0.1-0.6 0.4-0.3 0.3-0.5 0.7-0.1 0.3-0.1 0.7 0 0.4 0.1 0.8 0.2 0.4 0.5 0.6 0.3 0.3 0.6 0.5 0.4 0.1 0.8 0.1 0.4 0 0.8-0.1 0.3-0.2 0.6-0.5 0.3-0.2 0.4-0.6 0.2-0.4 0.2-0.8zm17.3 17.2q0-0.4-0.1-0.8-0.2-0.3-0.5-0.6-0.3-0.3-0.7-0.5-0.4-0.1-0.8-0.1-0.4 0-0.8 0.1-0.4 0.2-0.7 0.5-0.3 0.3-0.4 0.6-0.2 0.4-0.2 0.8 0 0.5 0.2 0.8 0.1 0.4 0.4 0.7 0.3 0.3 0.7 0.5 0.4 0.1 0.8 0.1 0.4 0 0.8-0.1 0.4-0.2 0.7-0.5 0.3-0.3 0.5-0.7 0.1-0.3 0.1-0.8z"/>
	<path id="Layer" fill-rule="evenodd" class="s1" d="m143.7 256.8c2.8-3.7 7.9-3.5 9.9 0.7 2.9 6.1-5.5 11.4-10.1 5.1q-0.1-0.1-0.2-0.1-0.1-0.1-0.2-0.2-0.1 0-0.2 0-0.1-0.1-0.2-0.1l-22.7 0.1q-0.6 0-0.2-0.5l25.4-25.4q0.2-0.2 0.3-0.4 0.2-0.2 0.3-0.5 0.1-0.2 0.1-0.5 0.1-0.2 0.1-0.5v-66.7q0-0.2 0-0.3-0.1-0.1-0.1-0.2-0.1-0.1-0.1-0.2-0.1-0.1-0.2-0.2c-7.6-5.8 2-14.7 7.1-8.6q3.5 4.4-1.3 8.8-0.4 0.4-0.4 1l0.2 69.3q0 0.2-0.1 0.3 0 0.1 0 0.2-0.1 0.1-0.1 0.2-0.1 0.1-0.2 0.1l-18.5 18.6q-0.5 0.5 0.2 0.5l10.4-0.1q0.4 0 0.8-0.4zm5.2-92.5q0.4-0.1 0.8-0.4 0.3-0.2 0.5-0.5 0.2-0.4 0.3-0.8 0.1-0.5 0-0.9-0.1-0.4-0.3-0.8-0.2-0.4-0.6-0.6-0.3-0.3-0.7-0.4-0.4-0.1-0.8 0-0.4 0.1-0.7 0.3-0.3 0.2-0.5 0.6-0.3 0.4-0.3 0.8-0.1 0.4 0 0.8 0.1 0.5 0.3 0.8 0.2 0.4 0.5 0.7 0.4 0.2 0.8 0.3 0.3 0.1 0.7 0.1zm1.6 95.5q0-0.4-0.2-0.7-0.1-0.4-0.4-0.7-0.3-0.3-0.7-0.4-0.4-0.2-0.8-0.2-0.4 0-0.7 0.2-0.4 0.1-0.7 0.4-0.3 0.3-0.4 0.7-0.2 0.3-0.2 0.7 0 0.4 0.2 0.8 0.1 0.4 0.4 0.7 0.3 0.3 0.7 0.4 0.3 0.2 0.7 0.2 0.4 0 0.8-0.2 0.4-0.1 0.7-0.4 0.3-0.3 0.4-0.7 0.2-0.4 0.2-0.8z"/>
	<path id="Layer" class="s2" d="m96.7 163.9c-1.1 0-2-0.9-2-2 0-1.1 0.9-2 2-2 1.1 0 2 0.9 2 2 0 1.1-0.9 2-2 2z"/>
	<path id="Layer" class="s2" d="m146.6 162.4c-0.2-1.2 0.4-2.3 1.5-2.5 1.1-0.2 2.2 0.6 2.4 1.8 0.2 1.2-0.5 2.4-1.6 2.6-1 0.2-2.1-0.7-2.3-1.9z"/>
	<path id="Layer" fill-rule="evenodd" class="s1" d="m132.9 162.4c5 1.7 5.3 7 1.3 10.3q-0.5 0.3-0.5 0.8v58.4q0 0.5-0.3 0.8l-15.3 15q-0.1 0.1-0.2 0.2 0 0.1-0.1 0.2 0 0.1 0 0.2 0 0.1 0 0.3c1.6 10-13.2 8.7-11-0.1q1.2-4.6 6.6-3.9 0.2 0 0.3 0 0.1 0 0.2 0 0.1-0.1 0.2-0.1 0.1-0.1 0.2-0.2l13.8-13.8q0.3-0.3 0.3-0.8l0.4-56q0-0.2 0-0.3-0.1-0.1-0.1-0.2-0.1-0.1-0.1-0.2-0.1-0.1-0.2-0.2c-5.4-4.7-1.8-12.6 4.5-10.4zm0.4 5.4q0-0.4-0.1-0.8-0.2-0.4-0.5-0.7-0.3-0.3-0.7-0.4-0.3-0.2-0.8-0.2-0.4 0-0.7 0.2-0.4 0.1-0.7 0.4-0.3 0.3-0.5 0.7-0.1 0.4-0.1 0.8 0 0.4 0.1 0.8 0.2 0.4 0.5 0.7 0.3 0.3 0.7 0.4 0.3 0.2 0.7 0.2 0.5 0 0.8-0.2 0.4-0.1 0.7-0.4 0.3-0.3 0.5-0.7 0.1-0.4 0.1-0.8zm-19 82.2q0-0.4-0.1-0.8-0.2-0.4-0.5-0.7-0.2-0.3-0.6-0.4-0.4-0.2-0.8-0.2-0.4 0-0.8 0.2-0.4 0.1-0.7 0.4-0.3 0.3-0.4 0.7-0.2 0.4-0.2 0.8 0 0.4 0.2 0.7 0.1 0.4 0.4 0.7 0.3 0.3 0.7 0.5 0.4 0.1 0.8 0.1 0.4 0 0.8-0.1 0.4-0.2 0.6-0.5 0.3-0.3 0.5-0.7 0.1-0.3 0.1-0.7z"/>
	<path id="Layer" class="s2" d="m131.3 169.9c-1.2 0-2.1-0.9-2.1-2.1 0-1.1 0.9-2.1 2-2.1 1.2 0 2.1 1 2.1 2.1 0 1.2-0.9 2.1-2.1 2.1z"/>
	<path id="Layer" class="s2" d="m52.2 177.2c-1.2 0-2.1-0.9-2.1-2.1 0-1.1 0.9-2.1 2.1-2.1 1.1 0 2.1 1 2.1 2.1 0 1.2-1 2.1-2.1 2.1z"/>
	<path id="Layer" fill-rule="evenodd" class="s1" d="m241.6 176.6c4.5-0.5 8.6 1.5 12.4-1.3 7.4-5.4 13.1 4.1 7.3 8.4q-4.5 3.3-8.3-1.5-0.3-0.4-0.8-0.4-3.6-0.1-7.1-0.1c-4.3 0.1-8.3 3.6-8.3 7.9 0 4-1 15.6 0.7 18.6 2.3 4.2 8.3 0.4 9.8 6.3 1.9 7.9-11.4 11.2-11 0.1q0-0.1-0.1-0.2 0-0.1 0-0.2-0.1-0.1-0.1-0.2-0.1-0.1-0.2-0.2l-3.7-3.7q-0.1-0.1-0.2-0.3-0.1-0.1-0.1-0.2-0.1-0.2-0.1-0.3 0-0.2 0-0.3v-23.7q0-0.2 0-0.3 0-0.1 0-0.2 0.1-0.2 0.1-0.3 0.1-0.1 0.2-0.2c2.3-2.7 5.8-7.2 9.5-7.7zm18.4 2.7q0-0.4-0.2-0.8-0.1-0.4-0.4-0.7-0.3-0.3-0.7-0.5-0.4-0.1-0.8-0.1-0.4 0-0.8 0.1-0.4 0.2-0.7 0.5-0.2 0.3-0.4 0.7-0.2 0.4-0.2 0.8 0 0.4 0.2 0.8 0.2 0.3 0.4 0.6 0.3 0.3 0.7 0.5 0.4 0.1 0.8 0.1 0.4 0 0.8-0.1 0.4-0.2 0.7-0.5 0.3-0.3 0.4-0.6 0.2-0.4 0.2-0.8zm-16.2 36.8q0-0.4-0.2-0.8-0.1-0.4-0.4-0.7-0.3-0.3-0.7-0.4-0.4-0.2-0.8-0.2-0.4 0-0.8 0.2-0.4 0.1-0.7 0.4-0.3 0.3-0.5 0.7-0.1 0.4-0.1 0.8 0 0.4 0.1 0.8 0.2 0.4 0.5 0.7 0.3 0.3 0.7 0.5 0.4 0.1 0.8 0.1 0.4 0 0.8-0.1 0.4-0.2 0.7-0.5 0.3-0.3 0.4-0.7 0.2-0.4 0.2-0.8z"/>
	<path id="Layer" class="s2" d="m113.9 181.2c-1.1 0-2.1-0.9-2.1-2.1 0-1.1 1-2.1 2.1-2.1 1.2 0 2.1 1 2.1 2.1 0 1.2-0.9 2.1-2.1 2.1z"/>
	<path id="Layer" class="s2" d="m257.9 181.3c-1.1 0-2.1-0.9-2.1-2 0-1.2 1-2.1 2.1-2.1 1.2 0 2.1 0.9 2.1 2.1 0 1.1-0.9 2-2.1 2z"/>
	<path id="Layer" class="s2" d="m166.6 192.8c-1.1 0-2.1-1-2.1-2.1 0-1.2 1-2.2 2.1-2.2 1.2 0 2.2 1 2.2 2.2 0 1.1-1 2.1-2.2 2.1z"/>
	<path id="Layer" fill-rule="evenodd" class="s1" d="m79.1 198.7q16.3 15.8 32.2 32 0.3 0.4 0 0.7l-10.7 10.6q-0.1 0.1-0.1 0.2-0.1 0.1-0.1 0.2-0.1 0.2-0.1 0.3 0 0.1 0.1 0.2c1.6 8-9.9 9.4-11.1 2.3-0.7-4.3 3-7.1 7.2-6.7q0.1 0 0.3 0 0.1 0 0.2 0 0.1-0.1 0.2-0.2 0.1 0 0.2-0.1l6.7-6.6q0.1-0.1 0.1-0.3 0.1-0.1 0.1-0.3 0-0.1-0.1-0.3 0-0.1-0.1-0.2l-29.9-29.8q0-0.1-0.1-0.2-0.1 0-0.2 0-0.1-0.1-0.2-0.1-0.1 0-0.2 0c-6.9 1-10.3-7.8-4-10.6q4.9-2.1 8 3 0 0.1 0.1 0.2 0 0.1 0 0.2 0 0.1 0 0.3 0 0.1 0 0.2c-0.6 2.3-0.2 3.3 1.5 5zm-5-3.8q0-0.4-0.2-0.8-0.1-0.4-0.4-0.7-0.3-0.3-0.7-0.4-0.4-0.2-0.8-0.2-0.4 0-0.8 0.2-0.4 0.1-0.7 0.4-0.3 0.3-0.5 0.7-0.1 0.4-0.1 0.8 0 0.4 0.1 0.8 0.2 0.4 0.5 0.7 0.3 0.3 0.7 0.5 0.4 0.1 0.8 0.1 0.4 0 0.8-0.1 0.4-0.2 0.7-0.5 0.3-0.3 0.4-0.7 0.2-0.4 0.2-0.8zm23.1 49.3q0-0.4-0.2-0.8-0.1-0.4-0.4-0.7-0.3-0.3-0.7-0.4-0.4-0.2-0.8-0.2-0.4 0-0.8 0.2-0.4 0.1-0.7 0.4-0.3 0.3-0.5 0.7-0.1 0.4-0.1 0.8 0 0.4 0.1 0.8 0.2 0.4 0.5 0.7 0.3 0.3 0.7 0.4 0.4 0.2 0.8 0.2 0.4 0 0.8-0.2 0.4-0.1 0.7-0.4 0.3-0.3 0.4-0.7 0.2-0.4 0.2-0.8z"/>
	<path id="Layer" class="s2" d="m72 197c-1.2 0-2.1-0.9-2.1-2.1 0-1.2 0.9-2.1 2.1-2.1 1.1 0 2.1 0.9 2.1 2.1 0 1.2-1 2.1-2.1 2.1z"/>
	<path id="Layer" fill-rule="evenodd" class="s1" d="m68.5 223.7q-8.8-8.4-17.4-17.3 0 0-0.1-0.1-0.1-0.1-0.2-0.1-0.1 0-0.3-0.1-0.1 0-0.2 0c-4.7 0.6-8.9-3.5-6.7-7.8 3.2-6.2 11.9-3.3 10.8 3.7q0 0.1 0 0.2 0 0.1 0.1 0.2 0 0.1 0 0.2 0.1 0.1 0.2 0.2l18.4 18.4q0.1 0.1 0.2 0.2 0.1 0.1 0.3 0.1 0.1 0.1 0.2 0.1 0.2 0 0.3 0 4.3-0.6 6.1 2.5c4.5 8.2-10.1 12.8-10.5 2.9-0.1-1.5 0-2.2-1.2-3.3zm-17.5-23.1q0-0.4-0.2-0.8-0.1-0.4-0.4-0.6-0.3-0.3-0.7-0.5-0.4-0.2-0.8-0.2-0.4 0-0.8 0.2-0.4 0.2-0.7 0.5-0.3 0.2-0.4 0.6-0.2 0.4-0.2 0.8 0 0.4 0.2 0.8 0.1 0.4 0.4 0.7 0.3 0.3 0.7 0.5 0.4 0.1 0.8 0.1 0.4 0 0.8-0.1 0.4-0.2 0.7-0.5 0.3-0.3 0.4-0.7 0.2-0.4 0.2-0.8zm26.3 26.3q0-0.4-0.2-0.8-0.1-0.4-0.4-0.7-0.3-0.3-0.7-0.5-0.4-0.1-0.8-0.1-0.4 0-0.8 0.1-0.4 0.2-0.7 0.5-0.3 0.3-0.5 0.7-0.1 0.4-0.1 0.8 0 0.4 0.1 0.8 0.2 0.4 0.5 0.7 0.3 0.3 0.7 0.4 0.4 0.2 0.8 0.2 0.4 0 0.8-0.2 0.4-0.1 0.7-0.4 0.3-0.3 0.4-0.7 0.2-0.4 0.2-0.8z"/>
	<path id="Layer" class="s2" d="m48.9 202.7c-1.2 0-2.1-0.9-2.1-2.1 0-1.1 0.9-2.1 2.1-2.1 1.2 0 2.1 1 2.1 2.1 0 1.2-0.9 2.1-2.1 2.1z"/>
	<path id="Layer" class="s2" d="m109.8 205.9c-1.1 0-2-0.9-2-2 0-1.1 0.9-2 2-2 1.1 0 2 0.9 2 2 0 1.1-0.9 2-2 2z"/>
	<path id="Layer" class="s2" d="m183.1 210.6c-1.2 0-2.1-0.9-2.1-2.1 0-1.1 0.9-2.1 2.1-2.1 1.1 0 2.1 1 2.1 2.1 0 1.2-1 2.1-2.1 2.1z"/>
	<path id="Layer" fill-rule="evenodd" class="s1" d="m168.5 226.5q-0.4 12.2-0.2 24.5c0 2.4-0.4 3 1.5 4.8 2.8 2.7 2 7.1-1.1 8.9-6.4 3.6-12-5.3-5.9-9.8q0.1 0 0.2-0.1 0.1-0.1 0.1-0.3 0.1-0.1 0.1-0.2 0-0.1 0-0.2l0.1-40.1q-0.1-0.1 0-0.2 0 0 0.1-0.1 0.1 0 0.2 0 0 0.1 0.1 0.1l30.3 30.4q0.1 0.1 0.2 0.1 0.1 0.1 0.2 0.1 0.2 0.1 0.3 0.1 0.1 0 0.2 0c8.1-0.9 9.6 9.6 2.7 10.9-4.6 0.9-7.6-2.3-7-6.9q0-0.1 0-0.2 0-0.1-0.1-0.2 0-0.1-0.1-0.2 0-0.1-0.1-0.2l-21.4-21.4q-0.3-0.4-0.4 0.2zm29.8 23.5q0-0.4-0.2-0.8-0.1-0.4-0.4-0.7-0.3-0.2-0.7-0.4-0.4-0.1-0.8-0.2-0.4 0.1-0.7 0.2-0.4 0.2-0.7 0.4-0.3 0.3-0.4 0.7-0.2 0.4-0.2 0.8 0 0.4 0.2 0.8 0.1 0.3 0.4 0.6 0.3 0.3 0.7 0.5 0.3 0.1 0.7 0.1 0.4 0 0.8-0.1 0.4-0.2 0.7-0.5 0.3-0.3 0.4-0.6 0.2-0.4 0.2-0.8zm-30.5 9.8q0-0.4-0.1-0.8-0.2-0.4-0.5-0.7-0.2-0.3-0.6-0.4-0.4-0.2-0.8-0.2-0.4 0-0.8 0.2-0.4 0.1-0.6 0.4-0.3 0.3-0.5 0.7-0.1 0.4-0.2 0.8 0.1 0.4 0.2 0.7 0.2 0.4 0.5 0.7 0.2 0.3 0.6 0.5 0.4 0.1 0.8 0.1 0.4 0 0.8-0.1 0.4-0.2 0.6-0.5 0.3-0.3 0.5-0.7 0.1-0.3 0.1-0.7z"/>
	<path id="Layer" class="s2" d="m241.7 218.2c-1.2 0-2.1-0.9-2.1-2.1 0-1.1 0.9-2.1 2.1-2.1 1.1 0 2.1 1 2.1 2.1 0 1.2-1 2.1-2.1 2.1z"/>
	<path id="Layer" class="s2" d="m199.5 227.2c-1.1 0-2.1-0.9-2.1-2 0-1.2 1-2.1 2.1-2.1 1.1 0 2.1 0.9 2.1 2.1 0 1.1-1 2-2.1 2z"/>
	<path id="Layer" class="s2" d="m75.2 229c-1.2 0-2.1-0.9-2.1-2.1 0-1.2 0.9-2.1 2.1-2.1 1.2 0 2.1 0.9 2.1 2.1 0 1.2-0.9 2.1-2.1 2.1z"/>
	<path id="Layer" class="s2" d="m217.9 238.8c-1.2 0-2.1-0.9-2.1-2.1 0-1.1 0.9-2 2.1-2 1.1 0 2 0.9 2 2 0 1.2-0.9 2.1-2 2.1z"/>
	<path id="Layer" class="s2" d="m95.1 246.3c-1.2 0-2.1-0.9-2.1-2.1 0-1.2 0.9-2.1 2.1-2.1 1.1 0 2.1 0.9 2.1 2.1 0 1.2-1 2.1-2.1 2.1z"/>
	<path id="Layer" class="s2" d="m112.3 252c-1.1 0-2.1-0.9-2.1-2 0-1.2 1-2.1 2.1-2.1 1.1 0 2.1 0.9 2.1 2.1 0 1.1-1 2-2.1 2z"/>
	<path id="Layer" class="s2" d="m196.2 252c-1.1 0-2-0.9-2-2 0-1.1 0.9-2.1 2-2.1 1.2 0 2.1 1 2.1 2.1 0 1.1-0.9 2-2.1 2z"/>
	<path id="Layer" class="s2" d="m165.8 261.8c-1.1 0-2.1-0.9-2.1-2 0-1.2 1-2.1 2.1-2.1 1.1 0 2.1 0.9 2.1 2.1 0 1.1-1 2-2.1 2z"/>
	<path id="Layer" class="s2" d="m148.4 261.9c-1.1 0-2-0.9-2-2.1 0-1.1 0.9-2 2-2 1.2 0 2.1 0.9 2.1 2 0 1.2-0.9 2.1-2.1 2.1z"/>
</svg>